<?xml version="1.0" encoding="iso-8859-1"?>
<!-- Generator: Adobe Illustrator 16.0.0, SVG Export Plug-In . SVG Version: 6.00 Build 0)  -->
<!DOCTYPE svg PUBLIC "-//W3C//DTD SVG 1.1//EN" "http://www.w3.org/Graphics/SVG/1.1/DTD/svg11.dtd">
<svg version="1.1" xmlns="http://www.w3.org/2000/svg" xmlns:xlink="http://www.w3.org/1999/xlink" x="0px" y="0px" width="64px"
	 height="64px" viewBox="0 0 64 64" style="enable-background:new 0 0 64 64;" xml:space="preserve">
<g id="blinds">
	<g>
		<path d="M52,0H12C5.373,0,0,5.373,0,12v40c0,6.627,5.373,12,12,12h40c6.627,0,12-5.373,12-12V12C64,5.373,58.627,0,52,0z"/>
		<path d="M12,62C6.486,62,2,57.514,2,52V12C2,6.486,6.486,2,12,2h40c5.514,0,10,4.486,10,10v40c0,5.514-4.486,10-10,10H12z"/>
	</g>
	<path style="fill-rule:evenodd;clip-rule:evenodd;fill:#FFFFFF;" d="M54.704,18.088c0,1.059,0,2.119,0,3.178
		c-0.906,0-1.814,0-2.769,0c0,0.736,0,2.374,0,3.184c0.955,0,1.862,0,2.769,0c0,1.06,0,2.12,0,3.178c-0.906,0-1.813,0-2.73,0
		c0,0.802,0,2.46,0,3.187c0.97,0,1.851,0,2.73,0c0,1.059,0,2.118,0,3.177c-0.906,0-1.814,0-2.734,0c0,0.842,0,2.504,0,3.185
		c0.969,0,1.851,0,2.734,0c0,1.125,0,2.253,0,3.378c-0.9-0.039-1.802-0.08-2.764-0.122c0,0.779,0,2.416,0,3.108
		c0.954,0,1.858,0,2.764,0c0,1.125,0,2.251,0,3.376c-0.905,0-1.813,0-2.768,0c0,0.704-0.091,3.979-0.03,5.226
		c0.018,0.367,0.235,0.802,0.501,1.062c0.977,0.962,1.103,2.242,0.237,3.176c-0.826,0.891-2.243,0.917-3.105,0.053
		c-0.923-0.922-0.828-2.269,0.206-3.234c0.202-0.188,0.472-0.446,0.479-0.681c0.045-1.378-0.05-4.936-0.05-5.653
		c-0.373,0-0.667,0-0.96,0c-11.746,0-27.126,0-38.873,0.002c-0.263,0-0.526,0.034-0.789,0.051c0-1.125,0-2.251,0-3.376
		c0.197,0.021,0.393,0.058,0.589,0.058c11.876,0.003,27.387,0.003,39.263,0c0.251,0,0.504-0.051,0.76-0.08c0-0.703,0-2.338,0-3.013
		c-0.381-0.021-0.674-0.048-0.968-0.048c-11.709-0.002-27.055-0.002-38.766,0.002c-0.292,0.001-0.586,0.061-0.878,0.095
		c0-1.125,0-2.253,0-3.378c0.132,0.01,0.264,0.027,0.396,0.027c11.945,0.001,27.526,0.001,39.471-0.002
		c0.25,0,0.501-0.049,0.753-0.074c0-0.714,0-2.354,0-3.079c-0.472,0-0.862,0-1.253,0c-11.482,0-26.6,0-38.082-0.004
		c-0.429,0-0.856-0.033-1.285-0.053c0-1.06,0-2.119,0-3.177c12.323,0,28.284,0,40.623,0c0-0.81,0-2.452,0-3.166
		c-0.502,0-0.93,0-1.355,0c-11.877-0.007-27.39-0.014-39.267-0.021c0-1.059,0-2.118,0-3.178c0.429-0.016,0.857-0.047,1.286-0.047
		c11.515-0.002,26.664-0.002,38.179-0.002c0.38,0,0.762,0,1.16,0c0-0.8,0-2.443,0-3.093c-0.202-0.026-0.332-0.057-0.462-0.057
		c-12.176,0.003-27.987,0.009-40.164,0.015c0-1.06,0-2.119,0-3.178c0.426-0.03,0.852-0.085,1.278-0.085
		c11.48-0.006,26.597-0.005,38.077-0.005c0.417,0,0.834,0,1.267,0c0-0.79,0-1.43,0-2.148c-0.373,0-0.667,0-0.96,0
		c-11.746,0-29.165,0-40.911,0.002c-0.263,0-0.526,0.033-0.789,0.05c0-2.317,0-2.439,0-4.756c13.838,0,35.131,0,48.97,0
		c0,2.317,0,2.439,0,4.756c-0.904,0-3.594,0-4.549,0c0,0.704,0,1.342,0,2.027C52.891,17.984,53.798,18.036,54.704,18.088z"/>
</g>
<g id="Layer_1">
</g>
</svg>
