<?xml version="1.0" encoding="iso-8859-1"?>
<!-- Generator: Adobe Illustrator 16.0.0, SVG Export Plug-In . SVG Version: 6.00 Build 0)  -->
<!DOCTYPE svg PUBLIC "-//W3C//DTD SVG 1.1//EN" "http://www.w3.org/Graphics/SVG/1.1/DTD/svg11.dtd">
<svg version="1.1" xmlns="http://www.w3.org/2000/svg" xmlns:xlink="http://www.w3.org/1999/xlink" x="0px" y="0px" width="64px"
	 height="64px" viewBox="0 0 64 64" style="enable-background:new 0 0 64 64;" xml:space="preserve">
<g id="drain">
	<g>
		<path style="fill:#1A1A1A;" d="M52,0H12C5.373,0,0,5.373,0,12v40c0,6.627,5.373,12,12,12h40c6.627,0,12-5.373,12-12V12
			C64,5.373,58.627,0,52,0z M62.1,52c0,5.569-4.53,10.1-10.1,10.1H12c-5.569,0-10.1-4.53-10.1-10.1V12C1.9,6.431,6.431,1.9,12,1.9
			h40c5.569,0,10.1,4.531,10.1,10.1V52z"/>
		<path d="M52,1.9H12C6.431,1.9,1.9,6.431,1.9,12v40c0,5.569,4.531,10.1,10.1,10.1h40c5.569,0,10.1-4.53,10.1-10.1V12
			C62.1,6.431,57.569,1.9,52,1.9z"/>
	</g>
	<g>
		<path style="fill-rule:evenodd;clip-rule:evenodd;fill:#FFFFFF;" d="M39.21,39.113c-0.758-1.301-0.646-2.332,0.131-3.301
			c1.188-1.484,2.607-2.255,4.587-2.102c1.836,0.142,3.691,0.036,5.539,0.028c3.299-0.013,5.711-2.288,5.854-5.557
			c0.015-0.351-0.106-0.868-0.348-1.021c-0.212-0.135-0.743,0.04-1.023,0.235c-1.401,0.978-3.299,0.948-4.599-0.13
			c-0.279-0.231-0.555-0.466-0.837-0.692c-0.61-0.489-1.09-0.643-1.695,0.149c-1.464,1.913-4.668,1.843-6.06,0.046
			c-0.69-0.891-1.215-0.855-2.015,0.009c-0.861,0.929-1.824,1.382-3.15,1.317c-1.319-0.065-2.31-0.605-3.055-1.572
			c-0.492-0.639-0.775-0.489-1.293-0.084c-0.862,0.673-1.569,1.542-2.843,1.649c-1.564,0.132-2.728-0.472-3.795-1.471
			c-0.234-0.219-0.477-0.428-0.765-0.687c-0.459,0.42-0.854,0.83-1.296,1.178c-1.871,1.468-3.778,1.361-5.503-0.285
			c-0.962-0.919-1.198-0.913-2.19,0.051c-1.475,1.434-3.301,1.641-5.091,0.565c-0.753-0.453-0.998-0.034-1.052,0.624
			c-0.131,1.588,0.494,2.894,1.602,3.984c1.222,1.204,2.712,1.716,4.419,1.699c2.137-0.022,4.274-0.044,6.409,0.011
			c2.415,0.062,4.503,2.362,4.108,4.453c-0.051,0.27-0.178,0.525-0.354,1.025c-0.804-0.845-1.509-1.537-2.158-2.279
			c-0.727-0.833-1.638-1.132-2.707-1.123c-1.882,0.014-3.766,0.028-5.648,0.002c-3.34-0.047-5.833-1.54-7.275-4.558
			c-0.389-0.814-0.503-1.824-0.51-2.747C6.548,22.051,6.547,15.569,6.564,9.087c0.002-0.634-0.109-1.592,0.86-1.589
			c0.922,0.002,1.22,0.855,1.235,1.65c0.043,2.316,0.065,4.636,0.005,6.952c-0.038,1.455,0.062,2.74,1.645,3.4
			c1.361,0.568,3.435,0.287,4.518-0.908c0.825-0.91,1.456-0.74,2.164-0.017c1.747,1.782,4.713,1.59,6.269-0.478
			c0.476-0.632,0.817-0.345,1.207,0.079c1.032,1.125,2.255,1.686,3.846,1.583c1.335-0.087,2.181-0.879,3.052-1.682
			c0.485-0.447,0.802-0.495,1.21,0.083c1.472,2.08,4.547,2.096,6.083,0.469c0.777-0.823,1.403-0.815,2.269,0.004
			c1.786,1.693,4.405,1.528,5.946-0.331c0.534-0.646,0.896-0.546,1.412-0.1c1.086,0.937,2.204,1.689,3.784,1.563
			c1.955-0.156,3.247-1.362,3.26-3.312c0.014-2.172,0.001-4.345,0.003-6.518c0.001-0.325-0.022-0.658,0.033-0.975
			c0.132-0.752,0.433-1.542,1.296-1.437c0.313,0.039,0.743,0.928,0.746,1.432c0.043,6.626,0.061,13.252-0.007,19.878
			c-0.037,3.729-3.222,6.908-7.534,6.996c-1.701,0.035-3.41,0.107-5.104-0.009c-1.707-0.117-3.035,0.416-4.104,1.724
			C40.229,38.07,39.737,38.546,39.21,39.113z M23.636,19.958c-0.124,0.219-0.185,0.405-0.309,0.531
			c-1.99,2.051-4.275,2.12-6.439,0.236c-0.552-0.48-1.123-0.721-1.797-0.05c-1.525,1.517-3.305,1.761-5.351,0.879
			c-0.223-0.096-0.662-0.059-0.807,0.096c-0.518,0.558-0.272,2.55,0.314,3.048c1.785,1.515,4.055,1.43,5.681-0.212
			c0.818-0.825,1.162-0.777,2.055-0.042c2.268,1.866,3.553,1.868,5.877,0.009c0.875-0.7,1.232-0.729,1.997-0.024
			c2.005,1.85,4.04,1.803,6.095-0.032c0.081-0.073,0.162-0.145,0.237-0.223c0.535-0.551,0.875-0.485,1.49,0.083
			c2.183,2.017,3.896,2.083,6.003,0.232c0.899-0.789,1.291-0.849,2.14,0.011c1.696,1.716,4.339,1.744,5.87-0.087
			c0.725-0.864,1.193-0.613,1.876-0.1c0.603,0.453,1.238,0.88,1.914,1.207c1.494,0.722,2.748-0.002,3.926-0.825
			c1.044-0.73,1.002-1.858,0.882-2.957c-0.059-0.548-0.312-0.928-0.939-0.506c-1.818,1.218-3.871,1.072-5.597-0.385
			c-0.709-0.598-1.287-0.915-2.137,0.028c-1.502,1.664-4.168,1.573-5.799-0.009c-0.85-0.824-1.336-0.751-2.192,0.065
			c-0.467,0.444-1.099,0.849-1.718,0.974c-1.805,0.363-3.465,0.098-4.587-1.606c-0.069-0.105-0.22-0.158-0.322-0.227
			C29,22.647,26.968,22.923,23.636,19.958z"/>
		<path style="fill-rule:evenodd;clip-rule:evenodd;fill:#FFFFFF;" d="M36.851,38.189c0,1.953,0.022,3.907-0.009,5.859
			c-0.017,1.013,0.442,1.456,1.425,1.453c1.194-0.006,2.389-0.026,3.579,0.034c0.352,0.018,0.688,0.288,1.034,0.444
			c-0.152,0.301-0.255,0.64-0.462,0.896c-2.308,2.864-4.621,5.723-6.957,8.564c-0.914,1.113-1.896,2.17-2.832,3.268
			c-0.429,0.504-0.805,0.522-1.237,0.008c-1.645-1.962-3.314-3.903-4.949-5.874c-1.656-1.995-3.288-4.013-4.914-6.033
			c-0.186-0.23-0.449-0.682-0.365-0.789c0.191-0.246,0.568-0.462,0.881-0.48c1.082-0.059,2.169-0.02,3.254-0.034
			c1.61-0.022,1.837-0.216,1.847-1.808c0.023-3.689,0.008-7.378,0.012-11.069c0.001-1.594,0.232-1.814,1.819-1.81
			c1.989,0.005,3.979,0.007,5.968,0.001c1.715-0.006,1.904,0.179,1.908,1.943c0.002,1.808,0,3.618,0,5.426
			C36.854,38.189,36.853,38.189,36.851,38.189z"/>
	</g>
</g>
<g id="Layer_1">
</g>
</svg>
