<?xml version="1.0" encoding="iso-8859-1"?>
<!-- Generator: Adobe Illustrator 16.0.0, SVG Export Plug-In . SVG Version: 6.00 Build 0)  -->
<!DOCTYPE svg PUBLIC "-//W3C//DTD SVG 1.1 Tiny//EN" "http://www.w3.org/Graphics/SVG/1.1/DTD/svg11-tiny.dtd">
<svg version="1.1" baseProfile="tiny" id="Layer_1" xmlns="http://www.w3.org/2000/svg" xmlns:xlink="http://www.w3.org/1999/xlink"
	 x="0px" y="0px" width="64px" height="64px" viewBox="0 0 64 64" xml:space="preserve">
<path fill="none" stroke="#000000" stroke-width="2.8346" stroke-linecap="round" stroke-miterlimit="10" d="M49.042,44.295
	c0,0,6.603-3.394,6.603-9.966c0-6.57-10.356-11.17-9.969-15.878c0.389-4.709,3.754-6.242,5.696-7.994"/>
<path fill="none" stroke="#000000" stroke-width="2.8346" stroke-linecap="round" stroke-miterlimit="10" d="M30.529,44.295
	c0,0,6.603-3.394,6.603-9.966c0-6.57-10.356-11.17-9.968-15.878c0.388-4.709,3.753-6.242,5.696-7.994"/>
<path fill="none" stroke="#000000" stroke-width="2.8346" stroke-linecap="round" stroke-miterlimit="10" d="M12.251,44.295
	c0,0,6.603-3.394,6.603-9.966c0-6.57-10.357-11.17-9.969-15.878c0.388-4.709,3.754-6.242,5.696-7.994"/>
<line fill="none" stroke="#000000" stroke-width="3" stroke-linecap="round" stroke-miterlimit="10" x1="7.622" y1="49.917" x2="58.622" y2="49.917"/>
</svg>
