<?xml version="1.0" encoding="iso-8859-1"?>
<!-- Generator: Adobe Illustrator 16.0.0, SVG Export Plug-In . SVG Version: 6.00 Build 0)  -->
<!DOCTYPE svg PUBLIC "-//W3C//DTD SVG 1.1//EN" "http://www.w3.org/Graphics/SVG/1.1/DTD/svg11.dtd">
<svg version="1.1" xmlns="http://www.w3.org/2000/svg" xmlns:xlink="http://www.w3.org/1999/xlink" x="0px" y="0px"
	 width="3307.2px" height="3103.241px" viewBox="0 0 3307.2 3103.241" style="enable-background:new 0 0 3307.2 3103.241;"
	 xml:space="preserve">
<g id="induction">
	<path style="fill:none;stroke:#000000;stroke-width:3;stroke-miterlimit:10;" d="M564.5,550.5c0,6.627-5.373,12-12,12h-513
		c-6.627,0-12-5.373-12-12v-502c0-6.627,5.373-12,12-12h513c6.627,0,12,5.373,12,12V550.5z"/>
	<line style="fill:none;stroke:#000000;stroke-width:3;stroke-miterlimit:10;" x1="101" y1="150.5" x2="230" y2="150.5"/>
	<line style="fill:none;stroke:#000000;stroke-width:3;stroke-miterlimit:10;" x1="165.5" y1="85" x2="165.5" y2="214"/>
	<line style="fill:none;stroke:#000000;stroke-width:3;stroke-miterlimit:10;" x1="165.5" y1="338" x2="165.5" y2="467"/>
	<line style="fill:none;stroke:#000000;stroke-width:3;stroke-miterlimit:10;" x1="339" y1="150.5" x2="477" y2="150.5"/>
	<line style="fill:none;stroke:#000000;stroke-width:3;stroke-miterlimit:10;" x1="101" y1="406.5" x2="230" y2="406.5"/>
	<line style="fill:none;stroke:#000000;stroke-width:3;stroke-miterlimit:10;" x1="339" y1="406.5" x2="477" y2="406.5"/>
	<line style="fill:none;stroke:#000000;stroke-width:3;stroke-miterlimit:10;" x1="408.5" y1="338" x2="408.5" y2="476"/>
	<line style="fill:none;stroke:#000000;stroke-width:3;stroke-miterlimit:10;" x1="408.5" y1="81" x2="408.5" y2="219"/>
</g>
<g id="Layer_1">
</g>
</svg>
