<?xml version="1.0" encoding="iso-8859-1"?>
<!-- Generator: Adobe Illustrator 16.0.0, SVG Export Plug-In . SVG Version: 6.00 Build 0)  -->
<!DOCTYPE svg PUBLIC "-//W3C//DTD SVG 1.1//EN" "http://www.w3.org/Graphics/SVG/1.1/DTD/svg11.dtd">
<svg version="1.1" xmlns="http://www.w3.org/2000/svg" xmlns:xlink="http://www.w3.org/1999/xlink" x="0px" y="0px" width="64px"
	 height="64px" viewBox="0 0 64 64" style="enable-background:new 0 0 64 64;" xml:space="preserve">
<g id="perilex">
	<g>
		<path style="fill:#1A1A1A;" d="M52,0H12C5.373,0,0,5.373,0,12v40c0,6.627,5.373,12,12,12h40c6.627,0,12-5.373,12-12V12
			C64,5.373,58.627,0,52,0z M62.1,52c0,5.569-4.53,10.1-10.1,10.1H12c-5.569,0-10.1-4.53-10.1-10.1V12C1.9,6.431,6.431,1.9,12,1.9
			h40c5.569,0,10.1,4.531,10.1,10.1V52z"/>
		<path d="M52,1.9H12C6.431,1.9,1.9,6.431,1.9,12v40c0,5.569,4.531,10.1,10.1,10.1h40c5.569,0,10.1-4.53,10.1-10.1V12
			C62.1,6.431,57.569,1.9,52,1.9z"/>
	</g>
	<circle style="opacity:0.5;fill:#FFFFFF;" cx="32" cy="32" r="24.75"/>
	<path style="fill:#FFFFFF;" d="M43.706,32.459c0-4.6,4.346-8.671,10.923-10.358c-0.668-1.521-1.483-2.964-2.431-4.307H34.32V7.375
		c-0.776-0.075-1.562-0.116-2.358-0.116c-1.002,0-1.989,0.068-2.961,0.184v10.353H11.727c-0.913,1.297-1.703,2.684-2.357,4.146
		c6.751,1.63,11.266,5.79,11.266,10.442c0,4.605-4.358,8.682-10.948,10.363c4.007,8.269,12.485,13.985,22.274,13.985
		c9.568,0,18.171-5.466,22.284-14.014C47.898,40.972,43.706,36.943,43.706,32.459z M43.213,18.999c1.736,0,3.142,1.407,3.142,3.142
		s-1.405,3.142-3.142,3.142c-1.734,0-3.142-1.407-3.142-3.142S41.479,18.999,43.213,18.999z M38.043,33.244h-4.104v4.105h-2.736
		v-4.105H27.1v-2.735h4.104v-4.102h2.736v4.102h4.104V33.244z M21.329,45.343c-1.735,0-3.142-1.407-3.142-3.142
		c0-1.735,1.407-3.142,3.142-3.142c1.735,0,3.142,1.406,3.142,3.142C24.47,43.936,23.064,45.343,21.329,45.343z M21.329,25.282
		c-1.735,0-3.142-1.407-3.142-3.142s1.407-3.142,3.142-3.142c1.735,0,3.142,1.407,3.142,3.142S23.064,25.282,21.329,25.282z
		 M43.213,45.343c-1.734,0-3.142-1.407-3.142-3.142c0-1.735,1.407-3.142,3.142-3.142c1.736,0,3.142,1.406,3.142,3.142
		C46.354,43.936,44.949,45.343,43.213,45.343z"/>
</g>
<g id="Layer_1">
</g>
</svg>
