<?xml version="1.0" encoding="iso-8859-1"?>
<!-- Generator: Adobe Illustrator 16.0.0, SVG Export Plug-In . SVG Version: 6.00 Build 0)  -->
<!DOCTYPE svg PUBLIC "-//W3C//DTD SVG 1.1//EN" "http://www.w3.org/Graphics/SVG/1.1/DTD/svg11.dtd">
<svg version="1.1" xmlns="http://www.w3.org/2000/svg" xmlns:xlink="http://www.w3.org/1999/xlink" x="0px" y="0px" width="64px"
	 height="64px" viewBox="0 0 64 64" style="enable-background:new 0 0 64 64;" xml:space="preserve">
<g id="shower">
	<g>
		<path style="fill:#1A1A1A;" d="M52,0H12C5.373,0,0,5.373,0,12v40c0,6.627,5.373,12,12,12h40c6.627,0,12-5.373,12-12V12
			C64,5.373,58.627,0,52,0z M62.1,52c0,5.569-4.53,10.1-10.1,10.1H12c-5.569,0-10.1-4.53-10.1-10.1V12C1.9,6.431,6.431,1.9,12,1.9
			h40c5.569,0,10.1,4.531,10.1,10.1V52z"/>
		<path d="M52,1.9H12C6.431,1.9,1.9,6.431,1.9,12v40c0,5.569,4.531,10.1,10.1,10.1h40c5.569,0,10.1-4.53,10.1-10.1V12
			C62.1,6.431,57.569,1.9,52,1.9z"/>
	</g>
	<g>
		<path style="fill-rule:evenodd;clip-rule:evenodd;fill:#F2F2F2;" d="M18.923,16.048c-0.653,1.647-0.681,3.533-2.374,4.599
			c-0.363-1.195-0.391-11.365-0.079-12.62c0.988,0.457,0.988,0.457,2.514,4.525c0.942,0.009,1.966,0.041,2.989,0.025
			c3.151-0.048,5.958,0.943,8.407,2.883c3.088,2.447,4.737,5.699,5.111,9.606c0.036,0.374,0.036,0.761-0.017,1.131
			c-0.117,0.819-0.723,1.413-1.474,1.507c-0.789,0.097-1.597-0.414-1.835-1.238c-0.132-0.448-0.168-0.929-0.205-1.398
			c-0.406-5.11-4.81-8.919-9.496-9.017C21.293,16.027,20.121,16.048,18.923,16.048z"/>
		<path style="fill-rule:evenodd;clip-rule:evenodd;fill:#F2F2F2;" d="M40.394,34.49c-4.397,0-8.533,0-12.827,0
			c0.012-2.215,1.003-3.808,2.67-4.917c2.279-1.512,4.73-1.567,7.11-0.215C39.222,30.424,40.266,32.071,40.394,34.49z"/>
		<path style="fill-rule:evenodd;clip-rule:evenodd;fill:#F2F2F2;" d="M12.868,14.262c0-2.218-0.004-4.437,0.003-6.655
			c0.001-0.423,0.023-0.849,0.083-1.267c0.086-0.606,0.511-0.898,1.079-0.936C14.67,5.36,15.139,5.671,15.299,6.3
			c0.091,0.359,0.084,0.748,0.085,1.124c0.005,4.626,0.006,9.251-0.001,13.877c-0.002,1.26-0.405,1.839-1.239,1.859
			c-0.859,0.021-1.252-0.505-1.263-1.818c-0.02-2.359-0.006-4.72-0.006-7.081C12.872,14.262,12.87,14.262,12.868,14.262z"/>
		<path style="fill-rule:evenodd;clip-rule:evenodd;fill:#F2F2F2;" d="M33.993,37.949c-2.174,0-4.345,0.014-6.518-0.004
			c-1.159-0.01-1.68-0.357-1.703-1.047c-0.024-0.711,0.642-1.184,1.765-1.188c4.298-0.014,8.597-0.01,12.895-0.014
			c0.143,0,0.285-0.004,0.425,0.012c0.788,0.094,1.229,0.482,1.252,1.094c0.025,0.684-0.425,1.123-1.313,1.135
			c-2.268,0.027-4.534,0.01-6.802,0.01V37.949z"/>
		<path style="fill-rule:evenodd;clip-rule:evenodd;fill:#F2F2F2;" d="M27.169,46.314c0.894,0.814,1.138,1.613,1.24,2.451
			c0.072,0.596-0.115,1.115-0.716,1.389c-0.585,0.268-1.564,0.115-1.971-0.326c-0.473-0.516-0.522-1.123-0.127-1.67
			C26.045,47.533,26.593,46.98,27.169,46.314z"/>
		<path style="fill-rule:evenodd;clip-rule:evenodd;fill:#F2F2F2;" d="M33.729,47.816c1.016,0.578,1.406,1.332,1.696,2.117
			c0.226,0.611,0.084,1.205-0.508,1.617c-0.545,0.379-1.318,0.4-1.851,0.029c-0.58-0.406-0.787-0.988-0.466-1.729
			C32.892,49.178,33.312,48.559,33.729,47.816z"/>
		<path style="fill-rule:evenodd;clip-rule:evenodd;fill:#F2F2F2;" d="M25.863,52.977c0.911,0.787,1.189,1.652,1.262,2.609
			c0.049,0.658-0.308,1.088-0.872,1.318c-0.686,0.285-1.31,0.031-1.829-0.418c-0.502-0.436-0.524-1.035-0.174-1.543
			C24.719,54.264,25.295,53.658,25.863,52.977z"/>
		<path style="fill-rule:evenodd;clip-rule:evenodd;fill:#F2F2F2;" d="M28.688,39.449c0.413,1.01,0.752,1.676,0.954,2.383
			c0.206,0.717-0.136,1.4-0.703,1.686c-0.572,0.291-1.505,0.105-1.939-0.385c-0.496-0.559-0.554-1.049-0.031-1.781
			C27.397,40.754,27.955,40.25,28.688,39.449z"/>
		<path style="fill-rule:evenodd;clip-rule:evenodd;fill:#F2F2F2;" d="M33.879,41.158c0.958,0.473,1.344,1.32,1.588,2.227
			c0.165,0.607-0.107,1.137-0.668,1.42c-0.571,0.293-1.201,0.332-1.748-0.053c-0.497-0.352-0.726-0.871-0.549-1.486
			C32.738,42.438,33.166,41.729,33.879,41.158z"/>
		<path style="fill-rule:evenodd;clip-rule:evenodd;fill:#F2F2F2;" d="M34.159,54.703c0.408,0.613,0.887,1.193,1.204,1.852
			c0.344,0.709,0.111,1.396-0.435,1.768c-0.548,0.373-1.532,0.379-2.005-0.041c-0.513-0.457-0.656-1.063-0.347-1.672
			c0.331-0.656,0.76-1.262,1.146-1.889C33.868,54.715,34.014,54.709,34.159,54.703z"/>
		<path style="fill-rule:evenodd;clip-rule:evenodd;fill:#F2F2F2;" d="M41.254,42.24c0.004,0.818-0.532,1.342-1.439,1.398
			c-0.861,0.057-1.395-0.316-1.529-1.107c-0.038-0.225-0.02-0.467,0.014-0.693c0.17-1.146,0.656-1.947,1.143-1.914
			C40.081,39.969,41.251,41.463,41.254,42.24z"/>
		<path style="fill-rule:evenodd;clip-rule:evenodd;fill:#F2F2F2;" d="M42.174,53.004c0.453,0.535,0.935,1.047,1.351,1.609
			c0.439,0.594,0.417,1.379,0.019,1.844c-0.426,0.5-1.337,0.688-1.961,0.408c-0.61-0.277-0.9-0.834-0.693-1.672
			c0.173-0.703,0.507-1.367,0.771-2.049C41.831,53.098,42.002,53.051,42.174,53.004z"/>
		<path style="fill-rule:evenodd;clip-rule:evenodd;fill:#F2F2F2;" d="M40.686,46.256c0.631,0.703,1.186,1.209,1.601,1.813
			c0.412,0.596,0.31,1.479-0.137,1.828c-0.563,0.441-1.233,0.482-1.881,0.244c-0.704-0.26-0.779-0.906-0.715-1.531
			C39.639,47.807,39.981,47.1,40.686,46.256z"/>
	</g>
</g>
<g id="Layer_1">
</g>
</svg>
