<?xml version="1.0" encoding="iso-8859-1"?>
<!-- Generator: Adobe Illustrator 16.0.0, SVG Export Plug-In . SVG Version: 6.00 Build 0)  -->
<!DOCTYPE svg PUBLIC "-//W3C//DTD SVG 1.1//EN" "http://www.w3.org/Graphics/SVG/1.1/DTD/svg11.dtd">
<svg version="1.1" xmlns="http://www.w3.org/2000/svg" xmlns:xlink="http://www.w3.org/1999/xlink" x="0px" y="0px" width="64px"
	 height="64px" viewBox="0 0 64 64" style="enable-background:new 0 0 64 64;" xml:space="preserve">
<g id="smoke">
	<g>
		<path style="fill:#1A1A1A;" d="M52,0H12C5.373,0,0,5.373,0,12v40c0,6.627,5.373,12,12,12h40c6.627,0,12-5.373,12-12V12
			C64,5.373,58.627,0,52,0z M62.1,52c0,5.569-4.53,10.1-10.1,10.1H12c-5.569,0-10.1-4.53-10.1-10.1V12C1.9,6.431,6.431,1.9,12,1.9
			h40c5.569,0,10.1,4.531,10.1,10.1V52z"/>
		<path d="M52,1.9H12C6.431,1.9,1.9,6.431,1.9,12v40c0,5.569,4.531,10.1,10.1,10.1h40c5.569,0,10.1-4.53,10.1-10.1V12
			C62.1,6.431,57.569,1.9,52,1.9z"/>
	</g>
	<g>
		<path style="fill-rule:evenodd;clip-rule:evenodd;fill:#FFFFFF;" d="M45.482,21.868c0.005,7.397-6.121,13.452-13.566,13.408
			c-7.345-0.041-13.362-6.062-13.374-13.378C18.532,14.433,24.52,8.425,31.995,8.4C39.446,8.377,45.479,14.398,45.482,21.868z
			 M31.949,31.23c5.277-0.004,9.512-4.204,9.503-9.423c-0.009-5.159-4.276-9.406-9.438-9.393c-5.217,0.013-9.444,4.215-9.434,9.378
			C22.592,26.999,26.796,31.236,31.949,31.23z"/>
		<path style="fill-rule:evenodd;clip-rule:evenodd;fill:#FFFFFF;" d="M30.406,44.514c2.131-2.031,2.494-4.583,2.56-7.725
			c2.6,2.5,3.917,5.232,4.947,8.369c1.779-2.016,1.923-4.282,2.013-6.698c0.309,0.144,0.535,0.179,0.654,0.313
			c3.558,3.995,5.278,8.659,4.726,13.995c-0.436,4.196-3.974,7.88-8.192,8.351c-3.027,0.336-6.13,0.307-9.173,0.083
			c-3.35-0.247-5.717-2.258-6.887-5.351c-1.192-3.151-0.676-6.249,1.609-8.753c2.179-2.381,3.51-4.997,3.819-8.529
			c0.687,0.889,1.431,1.74,2.047,2.68C29.194,42.261,29.745,43.351,30.406,44.514z M27.163,47.825
			c-0.386,0.594-0.529,0.914-0.758,1.15c-1.518,1.559-2.252,3.355-1.4,5.462c0.894,2.203,2.729,2.916,4.993,2.851
			c1.557-0.045,3.116,0.003,4.674-0.011c4.95-0.034,7.752-3.869,6.26-8.993c-1.621,2.037-3.136,3.944-4.851,6.102
			c-0.715-2.672-1.334-4.986-2.063-7.709c-1.928,1.89-3.572,3.5-5.275,5.168C28.296,50.707,27.836,49.537,27.163,47.825z"/>
		<path style="fill-rule:evenodd;clip-rule:evenodd;fill:#FFFFFF;" d="M47.364,6.604c0.613-0.651,1.153-1.226,1.69-1.796
			c8.914,7.902,10.103,24.343,0.077,33.971c-0.535-0.604-1.074-1.212-1.686-1.899c3.97-4.179,6.164-9.217,6.154-15.107
			C53.587,15.917,51.43,10.899,47.364,6.604z"/>
		<path style="fill-rule:evenodd;clip-rule:evenodd;fill:#FFFFFF;" d="M14.937,4.724c0.57,0.644,1.093,1.235,1.69,1.911
			c-4.035,4.2-6.198,9.253-6.202,15.14c-0.003,5.854,2.145,10.876,6.295,15.238c-0.66,0.556-1.281,1.079-1.908,1.607
			C6.093,30.835,4.831,14.452,14.937,4.724z"/>
		<path style="fill-rule:evenodd;clip-rule:evenodd;fill:#FFFFFF;" d="M18.684,8.682c0.621,0.588,1.19,1.127,1.747,1.657
			c-6.201,7.675-6.197,15.284-0.001,22.97c-0.545,0.519-1.111,1.058-1.679,1.6C12.274,29.567,10.432,16.485,18.684,8.682z"/>
		<path style="fill-rule:evenodd;clip-rule:evenodd;fill:#FFFFFF;" d="M43.611,10.293c0.576-0.531,1.152-1.062,1.729-1.594
			c7.22,6.441,7.388,19.538,0.007,26.213c-0.554-0.558-1.107-1.116-1.677-1.69C49.773,25.678,49.791,18.062,43.611,10.293z"/>
	</g>
</g>
<g id="Layer_1">
</g>
</svg>
