<?xml version="1.0" encoding="iso-8859-1"?>
<!-- Generator: Adobe Illustrator 16.0.0, SVG Export Plug-In . SVG Version: 6.00 Build 0)  -->
<!DOCTYPE svg PUBLIC "-//W3C//DTD SVG 1.1//EN" "http://www.w3.org/Graphics/SVG/1.1/DTD/svg11.dtd">
<svg version="1.1" xmlns="http://www.w3.org/2000/svg" xmlns:xlink="http://www.w3.org/1999/xlink" x="0px" y="0px"
	 width="3307.2px" height="3103.241px" viewBox="0 0 3307.2 3103.241" style="enable-background:new 0 0 3307.2 3103.241;"
	 xml:space="preserve">
<g id="Table">
	<g>
		<g>
			<g>
				<path style="fill:#E6E6E6;stroke:#000000;stroke-width:3;stroke-miterlimit:10;" d="M2569.555,849.322
					c0,89.767-22.963,170.178-59.492,226.178h32.009c36.522-56,59.483-136.417,59.483-226.178
					c0-96.228-26.391-181.822-67.588-237.822h-32.009C2543.161,667.5,2569.555,753.088,2569.555,849.322z"/>
				<path style="fill:#E6E6E6;stroke:#000000;stroke-width:3;stroke-miterlimit:10;" d="M2262.5,1075.5h247.563
					c36.529-56,59.492-136.411,59.492-226.178c0-96.234-26.394-181.822-67.597-237.822H2262.5V1075.5z"/>
			</g>
			<g>
				<path style="fill:#E6E6E6;stroke:#000000;stroke-width:3;stroke-miterlimit:10;" d="M1295.678,1640.816
					c-89.767,0-170.178-22.965-226.178-59.492v32.008c56,36.523,136.417,59.484,226.178,59.484
					c96.228,0,182.822-26.391,237.822-67.588v-32.01C1478.5,1614.422,1391.912,1640.816,1295.678,1640.816z"/>
				<path style="fill:#E6E6E6;stroke:#000000;stroke-width:3;stroke-miterlimit:10;" d="M1069.5,1334.5v246.824
					c56,36.527,136.411,59.492,226.178,59.492c96.234,0,182.822-26.395,237.822-67.598V1334.5H1069.5z"/>
			</g>
			<g>
				<path style="fill:#E6E6E6;stroke:#000000;stroke-width:3;stroke-miterlimit:10;" d="M1307.322,49.445
					c89.767,0,170.178,22.965,226.178,59.492V76.93c-56-36.523-136.417-59.484-226.178-59.484
					c-96.228,0-182.822,26.392-237.822,67.588v32.01C1124.5,75.84,1211.088,49.445,1307.322,49.445z"/>
				<path style="fill:#E6E6E6;stroke:#000000;stroke-width:3;stroke-miterlimit:10;" d="M1533.5,355.5V108.938
					c-56-36.527-136.411-59.492-226.178-59.492c-96.234,0-182.822,26.395-237.822,67.598V355.5H1533.5z"/>
			</g>
			<g>
				<path style="fill:#E6E6E6;stroke:#000000;stroke-width:3;stroke-miterlimit:10;" d="M40.814,837.678
					c0-89.767,22.965-170.178,59.492-226.178H68.299c-36.523,56-59.484,136.417-59.484,226.178
					c0,96.228,26.392,182.822,67.588,237.822h32.01C67.209,1020.5,40.814,933.912,40.814,837.678z"/>
				<path style="fill:#E6E6E6;stroke:#000000;stroke-width:3;stroke-miterlimit:10;" d="M346.5,611.5H100.307
					c-36.527,56-59.492,136.411-59.492,226.178c0,96.234,26.395,182.822,67.598,237.822H346.5V611.5z"/>
			</g>
			<g>
				<path style="fill:#E6E6E6;stroke:#000000;stroke-width:3;stroke-miterlimit:10;" d="M673.974,165.315
					c82.447-35.506,165.384-46.219,231.266-34.82l-12.66-29.397c-65.879-11.395-148.821-0.676-231.262,34.826
					c-88.381,38.062-157.475,96.553-191.695,156.144l12.66,29.398C516.5,261.869,585.587,203.379,673.974,165.315z"/>
				<path style="fill:#E6E6E6;stroke:#000000;stroke-width:3;stroke-miterlimit:10;" d="M1002.74,356.902l-97.501-226.407
					c-65.882-11.398-148.818-0.686-231.266,34.82c-88.387,38.063-157.474,96.554-191.691,156.15l94.297,218.963L1002.74,356.902z"/>
			</g>
			<g>
				<path style="fill:#E6E6E6;stroke:#000000;stroke-width:3;stroke-miterlimit:10;" d="M1933.882,181.309
					c83.405,33.192,149.625,84.263,188.15,138.908l11.835-29.739c-38.525-54.641-104.754-105.711-188.152-138.901
					c-89.408-35.581-179.624-43.078-245.959-25.139l-11.836,29.74C1754.257,138.231,1844.468,145.725,1933.882,181.309z"/>
				<path style="fill:#E6E6E6;stroke:#000000;stroke-width:3;stroke-miterlimit:10;" d="M2030.882,549.254l91.15-229.038
					c-38.525-54.646-104.745-105.716-188.15-138.908c-89.414-35.584-179.625-43.077-245.962-25.131l-88.152,221.508
					L2030.882,549.254z"/>
			</g>
			<g>
				<path style="fill:#E6E6E6;stroke:#000000;stroke-width:3;stroke-miterlimit:10;" d="M1942.656,1527.579
					c-82.446,35.505-165.384,46.218-231.265,34.82l12.66,29.396c65.879,11.396,148.82,0.678,231.262-34.826
					c88.381-38.061,157.474-96.551,191.695-156.143l-12.661-29.398C2100.131,1431.025,2031.044,1489.515,1942.656,1527.579z"/>
				<path style="fill:#E6E6E6;stroke:#000000;stroke-width:3;stroke-miterlimit:10;" d="M1613.891,1335.991l97.501,226.408
					c65.881,11.398,148.818,0.686,231.265-34.82c88.388-38.063,157.475-96.554,191.691-156.151l-94.296-218.963L1613.891,1335.991z"
					/>
			</g>
			<g>
				<path style="fill:#E6E6E6;stroke:#000000;stroke-width:3;stroke-miterlimit:10;" d="M668.749,1523.585
					c-83.405-33.192-149.625-84.264-188.15-138.908l-11.835,29.738c38.525,54.643,104.753,105.711,188.152,138.901
					c89.408,35.582,179.623,43.078,245.959,25.139l11.836-29.74C848.374,1566.662,758.163,1559.17,668.749,1523.585z"/>
				<path style="fill:#E6E6E6;stroke:#000000;stroke-width:3;stroke-miterlimit:10;" d="M571.749,1155.639l-91.15,229.038
					c38.525,54.645,104.745,105.716,188.15,138.908c89.414,35.585,179.625,43.077,245.962,25.13l88.152-221.507L571.749,1155.639z"
					/>
			</g>
		</g>
		
			<ellipse style="fill:#FFFFFF;stroke:#000000;stroke-width:2.8347;stroke-miterlimit:10;" cx="1302.274" cy="849.765" rx="1100" ry="600"/>
	</g>
</g>
<g id="Layer_1">
</g>
</svg>
