<?xml version="1.0" encoding="utf-8"?>
<!-- Generator: Adobe Illustrator 16.0.0, SVG Export Plug-In . SVG Version: 6.00 Build 0)  -->
<svg version="1.2" baseProfile="tiny" id="Layer_1"
	xmlns="http://www.w3.org/2000/svg"
	xmlns:xlink="http://www.w3.org/1999/xlink" x="0px" y="0px" width="537.931px" height="528.276px" viewBox="0 0 537.931 528.276" xml:space="preserve">
	<g>
		<path fill-rule="evenodd" d="M169.492,254.808c-0.059-55.339,45.874-101.784,100.734-101.857
	c56.687-0.076,102.573,45.512,102.595,101.929c0.022,55.983-46.251,102.418-101.942,102.299
	C215.457,357.06,169.551,310.708,169.492,254.808z"/>
		<path fill-rule="evenodd" d="M388.116,13.584c7.035,10.373,11.226,21.367,10.371,33.303c-1.345,18.776-8.928,35.021-22.613,48.134
	c-8.245,7.9-8.528,17.187-5.206,27.145c3.954,11.852,8.576,23.555,5.158,36.451c-3.21,12.111-9.28,22.163-20.898,29.855
	c-14.588-16.861-31.975-29.28-53.066-35.813c0.311-1.778,0.223-2.71,0.618-3.337c8.779-13.923,7.922-29.55,8.075-45.015
	c0.155-15.749,6.272-28.792,19.627-37.174c7.209-4.525,15.635-7.349,23.805-10.055c18.628-6.169,29.23-18.839,32.562-37.964
	C386.875,17.237,387.584,15.426,388.116,13.584z"/>
		<path fill-rule="evenodd" d="M9.209,193.012c10.108-8.463,20.968-14.694,34.125-16.081c17.851-1.882,34.399,1.907,49.466,11.836
	c7.294,4.807,14.838,4.26,22.287,0.501c7.133-3.6,14.022-7.687,21.196-11.199c15.854-7.763,41.306-2.866,51.09,10.298
	c-13.205,17.48-20.566,37.833-23.184,61.104c-19.303-8.664-36.299-1.085-53.75,1.372c-15.787,2.223-29.656-3.123-39.715-16.076
	c-3.866-4.978-7.301-10.361-10.372-15.871c-9.628-17.277-24.902-24.134-43.889-24.497c-1.988-0.038-3.975-0.132-5.959-0.261
	C10.25,194.123,10.021,193.737,9.209,193.012z"/>
		<path fill-rule="evenodd" d="M270.542,525.345c-10.819-8.15-18.508-16.313-23.248-26.977c-7.294-16.416-7.468-33.561-2.239-50.223
	c4.114-13.109,2.032-23.281-7.943-32.414c-12.656-11.586-21.534-25.17-19.443-43.271c0.799-6.916,3.078-13.662,5.035-21.984
	c21.79,9.971,43.214,12.189,65.655,9.994c0.239,2.332,0.696,3.936,0.514,5.463c-1.496,12.5,2.626,23.494,8.506,34.203
	c13.378,24.365,10.902,42.279-8.195,62.451c-5.479,5.787-11.766,11.104-16.002,17.713c-7.522,11.736-7.253,24.879-3.703,38.049
	C269.916,519.97,270,521.687,270.542,525.345z"/>
		<path fill-rule="evenodd" d="M534.989,195.435c-9.469,19.908-22.202,33.509-41.44,38.523c-11.353,2.958-23.623,2.821-35.507,3.144
	c-6.591,0.179-11.676,2.09-15.667,7.085c-3.736,4.677-7.643,9.266-10.906,14.265c-11.576,17.732-27.958,24.926-48.712,22.715
	c-2.441-0.26-4.776-1.525-7.362-2.393c4.116-22.07,2.363-42.878-5.128-63.752c1.578-0.756,2.919-1.893,4.341-2.004
	c12.833-1.007,22.895-7.482,32.026-15.881c20.062-18.454,40.753-20.437,63.478-5.302c12.399,8.258,25.038,14.948,40.454,11.988
	c5.626-1.08,10.983-3.565,16.453-5.44C528.978,197.711,530.905,196.95,534.989,195.435z"/>
		<path fill-rule="evenodd" d="M57.781,421.603c2.478-11.359,3.299-21.189,6.809-29.941c7.028-17.523,20.295-30.215,38.057-35.965
	c15.58-5.045,21.04-15.203,21.882-29.964c1.264-22.161,11.951-37.589,33.023-45.324c2.574-0.944,5.394-1.218,8.131-1.81
	c4.622,10.376,8.211,20.644,13.583,29.874c5.379,9.245,12.538,17.454,19.136,26.415c-0.54,0.654-1.084,1.793-1.987,2.334
	c-11.602,6.945-17.788,17.725-22.94,29.865c-11.244,26.494-31.046,36.506-59.092,30.639c-20.238-4.236-36.279,2.168-48.796,18.283
	c-1.017,1.309-2.139,2.543-3.283,3.744C62.006,420.068,61.444,420.128,57.781,421.603z"/>
		<path fill-rule="evenodd" d="M154.9,11.812c3.398,0.409,5.117,0.437,6.744,0.838c25.439,6.274,46.113,28.925,48.943,55.879
	c1.597,15.214,9.052,23.513,23.073,27.479c18.647,5.274,31.789,16.453,36.649,35.813c1.152,4.591,1.321,9.429,2.142,15.666
	c-22.758,1.916-43.905,6.892-61.746,19.394c-1.281-0.603-1.773-0.675-1.85-0.893c-5.222-14.834-16.426-24.204-28.377-33.709
	c-20.352-16.187-24.309-33.251-15.14-57.684c4.752-12.664,9.222-25.26,4.191-38.693c-2.063-5.51-5.637-10.473-8.678-15.592
	C159.373,17.822,157.537,15.547,154.9,11.812z"/>
		<path fill-rule="evenodd" d="M315.863,352.507c20.739-11.279,36.961-25.492,47.79-43.992c9.355,5.082,17.447,10.361,26.229,13.959
	c6.651,2.725,14.378,2.701,21.284,4.949c21.195,6.902,32.774,21.896,33.514,44.09c0.765,22.949,9.348,40.209,31.379,49.299
	c1.041,0.43,1.921,1.277,2.821,1.996c0.207,0.166,0.19,0.609,0.918,3.277c-9.331,0.275-18.326,1.768-26.937,0.547
	c-20.606-2.922-36.549-14.145-47.51-31.662c-6.804-10.875-15.628-14.602-28.159-13.137c-17.671,2.066-35.306,2.133-48.587-12.814
	C324.349,364.226,320.733,358.863,315.863,352.507z"/>
		<path fill-rule="evenodd" d="M218.983,349.175c-1.893,9.252-3.433,17.514-5.366,25.682c-0.456,1.924-1.853,4.094-3.468,5.201
	c-14.447,9.908-21.332,23.252-19.304,40.889c0.085,0.742-0.282,1.535-0.653,3.359c-2.027-1.477-3.691-2.344-4.915-3.631
	c-14.748-15.514-15.886-33.547-8.437-52.387c2.812-7.109,7.185-14.072,12.389-19.666
	C199.957,337.089,209.01,337.894,218.983,349.175z"/>
		<path fill-rule="evenodd" d="M358.801,192.956c5.998-7.785,11.472-14.985,17.094-22.068c0.746-0.94,2.186-1.608,3.412-1.847
	c17.632-3.436,31.574-11.253,36.386-30.147c0.116-0.456,0.515-0.84,0.782-1.258c0.862-0.09,1.725-0.181,2.588-0.272
	c1.326,6.778,3.872,13.576,3.758,20.329c-0.392,23.217-21.506,46.538-44.551,50.311C368.27,209.641,362.931,205.398,358.801,192.956
	z"/>
		<path fill-rule="evenodd" d="M165.998,272.61c-9.343,4.524-17.433,8.632-25.717,12.301c-1.74,0.771-4.257,0.214-6.312-0.222
	c-15.624-3.314-30.166-2.395-41.983,10.098c-0.844,0.893-2.064,1.43-4.801,3.27c0.676-5.242,0.768-8.943,1.665-12.438
	c6.937-27.026,43.421-44.514,69.126-33.444C168.437,256.679,163.291,266.201,165.998,272.61z"/>
		<path fill-rule="evenodd" d="M190.775,183.051c-8.532-4-16.35-7.547-24.032-11.367c-1.504-0.748-2.993-2.347-3.626-3.903
	c-6.565-16.132-17.773-26.255-35.566-28.169c-1.067-0.115-2.089-0.645-3.133-0.981c-0.248-0.828-0.496-1.656-0.744-2.484
	c7.354-2.685,14.509-6.557,22.1-7.829c21.873-3.666,47.803,12.033,55.906,32.845C205.269,170.38,201.353,177.955,190.775,183.051z" />
		<path fill-rule="evenodd" d="M312.158,354.236c6.126,7.629,12.068,14.9,17.813,22.324c0.802,1.035,0.902,2.824,0.876,4.258
	c-0.313,17.008,4.443,31.496,19.894,40.82c0.624,0.375,0.968,1.217,2.679,3.471c-7.281,0-13.32,0.867-19.023-0.148
	c-25.089-4.471-45.552-34.805-40.78-59.77C294.793,359.039,302.028,354.894,312.158,354.236z"/>
		<path fill-rule="evenodd" d="M404.176,284.544c13.984,13.46,30.498,19.201,51.806,9.63c-5.863,12.12-12.979,19.872-22.616,23.625
	c-18.795,7.317-37.631,6.493-54.728-5.276c-11.863-8.166-12.63-16.153-3.945-27.979
	C384.159,284.544,393.574,284.544,404.176,284.544z"/>
		<path fill-rule="evenodd" d="M271.528,67.017c1.792,0.425,3.73,0.546,5.355,1.323c18.188,8.696,28.57,22.917,29.989,43.225
	c0.852,12.196-0.13,24.043-8.317,34.055c-3.338,4.082-16.91,5.769-20.891,2.344c-1.273-1.095-1.807-3.378-2.105-5.21
	c-0.666-4.084,0.05-8.712-1.63-12.249c-3.738-7.871-1.809-14.353,1.115-22.07C280.188,94.857,282.463,80.622,271.528,67.017z"/>
	</g>
</svg>
