<?xml version="1.0" encoding="iso-8859-1"?>
<!-- Generator: Adobe Illustrator 16.0.0, SVG Export Plug-In . SVG Version: 6.00 Build 0)  -->
<!DOCTYPE svg PUBLIC "-//W3C//DTD SVG 1.1//EN" "http://www.w3.org/Graphics/SVG/1.1/DTD/svg11.dtd">
<svg version="1.1" id="Layer_1" xmlns="http://www.w3.org/2000/svg" xmlns:xlink="http://www.w3.org/1999/xlink" x="0px" y="0px"
	 width="64px" height="64px" viewBox="0 0 64 64" style="enable-background:new 0 0 64 64;" xml:space="preserve">
<polygon points="59.479,47.334 49.311,19.492 30.532,8.473 32.397,5.294 52.318,16.984 62.939,46.07 "/>
<g>
	<path d="M6.246,19.677c2.437-0.406,5.627-0.754,9.689-0.754c4.989,0,8.644,1.16,10.965,3.249c2.146,1.856,3.423,4.7,3.423,8.18
		c0,3.54-1.044,6.324-3.017,8.354c-2.669,2.844-7.02,4.293-11.951,4.293c-1.509,0-2.901-0.058-4.061-0.348v15.664H6.246V19.677z
		 M11.294,38.532c1.102,0.29,2.494,0.406,4.177,0.406c6.092,0,9.805-2.958,9.805-8.354c0-5.164-3.656-7.659-9.225-7.659
		c-2.205,0-3.887,0.174-4.757,0.406V38.532z"/>
</g>
<g>
	<path d="M50.091,31.002c0,9.089-6.296,13.049-12.236,13.049c-6.651,0-11.78-4.875-11.78-12.644c0-8.225,5.381-13.048,12.185-13.048
		C45.317,18.359,50.091,23.487,50.091,31.002z M30.594,31.255c0,5.383,3.096,9.445,7.463,9.445c4.266,0,7.464-4.013,7.464-9.546
		c0-4.164-2.082-9.444-7.362-9.444C32.878,21.71,30.594,26.584,30.594,31.255z"/>
</g>
</svg>
