<?xml version="1.0" encoding="utf-8"?>
<!-- Generator: Adobe Illustrator 16.0.0, SVG Export Plug-In . SVG Version: 6.00 Build 0)  -->
<!DOCTYPE svg PUBLIC "-//W3C//DTD SVG 1.0//EN" "http://www.w3.org/TR/2001/REC-SVG-20010904/DTD/svg10.dtd">
<svg version="1.0" id="Layer_3"
	xmlns="http://www.w3.org/2000/svg"
	xmlns:xlink="http://www.w3.org/1999/xlink" x="0px" y="0px" width="117.184px" height="568.086px" viewBox="0 0 117.184 568.086" enable-background="new 0 0 117.184 568.086" xml:space="preserve">
	<g>
		<g>
			<path fill-rule="evenodd" clip-rule="evenodd" fill="#454545" d="M50.469,512.605c1.333-9.668,1.018-20.537,1.191-28.506
		c0.111-5.092,0.032-10.053,1.674-15.166c2-6.229,0.122-13.121-2.149-18.799c-3.004-7.512-4.375-15.082-5.594-22.887
		c-0.369-2.361-1.833-4.771-3.377-6.689c-5.813-7.215-10.154-14.804-13.028-23.949c-2.408-7.662-2.87-15.478-5.013-23.027
		c-3.118-10.988-2.215-22.631-5.636-33.62c-1.02-3.278-0.185-7.126-0.241-10.712c-0.04-2.56-1.24-5.155-1.383-7.336
		c-0.293-4.433-3.44-5.008-5.941-6.483c-1.843-1.086-4.271-1.143-6.2-2.125c-4.542-2.313-4.632-5.324-4.767-10.578
		c-0.225-8.754,3.932-15.511,8.896-21.42c6.299-7.501,7.828-15.475,7.607-24.855c-0.477-20.204-0.433-40.434-0.033-60.642
		c0.371-18.733,2.354-37.4,2.132-56.195c-0.072-6.04,2.348-12.39,4.772-18.113c4.029-9.508,7.635-19.308,15.001-27.119
		c3.447-3.657,2.322-9.208,1.15-13.061c-2.347-7.722-1.287-15.345-1.623-23.007c-0.114-2.603-0.06-5.219,0.053-7.824
		c0.197-4.591-0.361-8.509-3.655-12.496c-4.102-4.965-2.923-8.269,2.463-11.998c2.326-1.61,4.797-3.031,7.292-4.37
		c2.132-1.143,3.076-2.716,3.798-5.117c1.368-4.545,4.063-6.392,7.859-4.36c6.078,3.251,10.082,0.471,14.896-2.388
		c2.802-1.663,7.827-0.711,9.525-2.813c2.073-2.569,4.012-4.692,6.938-6.014c3.638-1.642,6.679-1.214,9.499,1.988
		c6.303,7.155,11.996,14.502,16.326,23.228c2.297,4.631,3.49,8.722,4.287,13.807c-1.653,6.39-2.756,12.994-5.125,19.107
		c-2.063,5.323-7.643,7.373-12.567,9.55C94.323,70.904,88.9,72.64,83.76,74.996c-3.203,1.468-3.586,3.731-1.061,6.002
		c12.712,11.426,15.834,26.303,15.969,42.474c0.074,9.013-1.051,17.716-3.496,26.416c-1.53,5.445-1.295,11.363-2.5,16.928
		c-2.616,12.08-0.692,24.762-5.486,36.629c-1.479,3.661-0.01,8.418-0.441,12.618c-0.619,6.009,1.39,12.045-1.374,18.182
		c-1.122,2.49,0.479,7.012,2.182,9.789c2.883,4.707,2.317,9.842,3.528,14.689c2.248,8.991,1.236,17.95,1.723,26.915
		c0.395,7.276-1.087,13.894-5.894,19.604c-4.761,5.656-5.506,12.857-5.738,19.596c-0.597,17.261-0.358,34.558-0.112,51.835
		c0.058,4.03,0.548,8.569,2.471,11.945c3.39,5.952,4.339,12.546,6.12,18.825c2.485,8.757,3.485,17.941,5.04,26.957
		c0.859,4.99,0.801,10.297,2.574,14.918c1.253,3.266,1.238,6.287,1.285,9.424c0.155,10.432-0.033,20.869,0.132,31.301
		c0.127,8.041-0.19,15.938-3.324,23.529c-0.697,1.689-1.249,4.322-0.431,5.59c2.77,4.285,1.254,8.84,1.688,13.25
		c0.37,3.773-0.177,7.434,1.571,11.33c1.467,3.268,0.468,7.688,0.377,11.592c-0.061,2.596-1.694,4.039-4.162,4.609
		c-2.758,0.637-5.48,1.58-8.274,1.883c-7.627,0.822-48.083,5.561-55.736,6.119c-8.699,0.998-15.3-3.463-21.917-7.992
		c-3.504-2.396-5.206-6.129-3.781-9.82c1.165-3.018,3.191-5.533,6.955-5.891c9.377-0.893,18.062-3.289,24.632-10.809
		c1.833-2.1,4.636-3.32,6.759-5.209C44.47,526.951,49.136,522.271,50.469,512.605z"/>
		</g>
		<g>
			<defs>
				<path id="SVGID_1_" d="M130.532,285.709c0,0-17.042,21.134-29.287,14.291c-20.5-11.457-98.902,19.709-98.902,19.709
			l-5.333,253.333h152.667L130.532,285.709z"/>
			</defs>
			<clipPath id="SVGID_2_">
				<use xlink:href="#SVGID_1_" overflow="visible"/>
			</clipPath>
			<g clip-path="url(#SVGID_2_)">
				<path fill-rule="evenodd" clip-rule="evenodd" fill="#525BA5" d="M50.469,512.605c1.333-9.668,1.018-20.537,1.191-28.506
			c0.111-5.092,0.032-10.053,1.674-15.166c2-6.229,0.122-13.121-2.149-18.799c-3.004-7.512-4.375-15.082-5.594-22.887
			c-0.369-2.361-1.833-4.771-3.377-6.689c-5.813-7.215-10.154-14.804-13.028-23.949c-2.408-7.662-2.87-15.478-5.013-23.027
			c-3.118-10.988-2.215-22.631-5.636-33.62c-1.02-3.278-0.185-7.126-0.241-10.712c-0.04-2.56-1.24-5.155-1.383-7.336
			c-0.293-4.433-3.44-5.008-5.941-6.483c-1.843-1.086-4.271-1.143-6.2-2.125c-4.542-2.313-4.632-5.324-4.767-10.578
			c-0.225-8.754,3.932-15.511,8.896-21.42c6.299-7.501,7.828-15.475,7.607-24.855c-0.477-20.204-0.433-40.434-0.033-60.642
			c0.371-18.733,2.354-37.4,2.132-56.195c-0.072-6.04,2.348-12.39,4.772-18.113c4.029-9.508,7.635-19.308,15.001-27.119
			c3.447-3.657,2.322-9.208,1.15-13.061c-2.347-7.722-1.287-15.345-1.623-23.007c-0.114-2.603-0.06-5.219,0.053-7.824
			c0.197-4.591-0.361-8.509-3.655-12.496c-4.102-4.965-2.923-8.269,2.463-11.998c2.326-1.61,4.797-3.031,7.292-4.37
			c2.132-1.143,3.076-2.716,3.798-5.117c1.368-4.545,4.063-6.392,7.859-4.36c6.078,3.251,10.082,0.471,14.896-2.388
			c2.802-1.663,7.827-0.711,9.525-2.813c2.073-2.569,4.012-4.692,6.938-6.014c3.638-1.642,6.679-1.214,9.499,1.988
			c6.303,7.155,11.996,14.502,16.326,23.228c2.297,4.631,3.49,8.722,4.287,13.807c-1.653,6.39-2.756,12.994-5.125,19.107
			c-2.063,5.323-7.643,7.373-12.567,9.55C94.323,70.904,88.9,72.64,83.76,74.996c-3.203,1.468-3.586,3.731-1.061,6.002
			c12.712,11.426,15.834,26.303,15.969,42.474c0.074,9.013-1.051,17.716-3.496,26.416c-1.53,5.445-1.295,11.363-2.5,16.928
			c-2.616,12.08-0.692,24.762-5.486,36.629c-1.479,3.661-0.01,8.418-0.441,12.618c-0.619,6.009,1.39,12.045-1.374,18.182
			c-1.122,2.49,0.479,7.012,2.182,9.789c2.883,4.707,2.317,9.842,3.528,14.689c2.248,8.991,1.236,17.95,1.723,26.915
			c0.395,7.276-1.087,13.894-5.894,19.604c-4.761,5.656-5.506,12.857-5.738,19.596c-0.597,17.261-0.358,34.558-0.112,51.835
			c0.058,4.03,0.548,8.569,2.471,11.945c3.39,5.952,4.339,12.546,6.12,18.825c2.485,8.757,3.485,17.941,5.04,26.957
			c0.859,4.99,0.801,10.297,2.574,14.918c1.253,3.266,1.238,6.287,1.285,9.424c0.155,10.432-0.033,20.869,0.132,31.301
			c0.127,8.041-0.19,15.938-3.324,23.529c-0.697,1.689-1.249,4.322-0.431,5.59c2.77,4.285,1.254,8.84,1.688,13.25
			c0.37,3.773-0.177,7.434,1.571,11.33c1.467,3.268,0.468,7.688,0.377,11.592c-0.061,2.596-1.694,4.039-4.162,4.609
			c-2.758,0.637-5.48,1.58-8.274,1.883c-7.627,0.822-48.083,5.561-55.736,6.119c-8.699,0.998-15.3-3.463-21.917-7.992
			c-3.504-2.396-5.206-6.129-3.781-9.82c1.165-3.018,3.191-5.533,6.955-5.891c9.377-0.893,18.062-3.289,24.632-10.809
			c1.833-2.1,4.636-3.32,6.759-5.209C44.47,526.951,49.136,522.271,50.469,512.605z"/>
			</g>
		</g>
	</g>
</svg>
