<?xml version="1.0" encoding="iso-8859-1"?>
<!-- Generator: Adobe Illustrator 16.0.0, SVG Export Plug-In . SVG Version: 6.00 Build 0)  -->
<!DOCTYPE svg PUBLIC "-//W3C//DTD SVG 1.1//EN" "http://www.w3.org/Graphics/SVG/1.1/DTD/svg11.dtd">
<svg version="1.1" xmlns="http://www.w3.org/2000/svg" xmlns:xlink="http://www.w3.org/1999/xlink" x="0px" y="0px" width="64px"
	 height="64px" viewBox="0 0 64 64" style="enable-background:new 0 0 64 64;" xml:space="preserve">
<g id="alarm">
	<g>
		<path style="fill:#1A1A1A;" d="M52,0H12C5.373,0,0,5.373,0,12v40c0,6.627,5.373,12,12,12h40c6.627,0,12-5.373,12-12V12
			C64,5.373,58.627,0,52,0z M62.1,52c0,5.569-4.53,10.1-10.1,10.1H12c-5.569,0-10.1-4.53-10.1-10.1V12C1.9,6.431,6.431,1.9,12,1.9
			h40c5.569,0,10.1,4.531,10.1,10.1V52z"/>
		<path d="M52,1.9H12C6.431,1.9,1.9,6.431,1.9,12v40c0,5.569,4.531,10.1,10.1,10.1h40c5.569,0,10.1-4.53,10.1-10.1V12
			C62.1,6.431,57.569,1.9,52,1.9z"/>
	</g>
	<g>
		<path style="fill-rule:evenodd;clip-rule:evenodd;fill:#FFFFFF;" d="M45.32,44.705c-8.914,0-17.863,0-27.017,0
			c-0.301-1.031-0.556-1.905-0.758-2.599c0.34-0.582,0.456-0.971,0.714-1.193c2.307-1.984,3.174-4.513,2.958-7.493
			c-0.062-0.846-0.017-1.701-0.012-2.553c0.041-6.549,1.708-9.117,8.008-12.223c0.287-0.67,0.61-1.427,1.017-2.376
			c1.064-0.05,2.117-0.1,3.289-0.154c0.422,0.882,0.775,1.619,1.229,2.563c0.462,0.226,1.105,0.545,1.752,0.858
			c3.703,1.794,5.756,4.761,6.145,8.836c0.138,1.448,0.146,2.919,0.076,4.373c-0.148,3.029,0.263,5.788,2.733,7.948
			C46.604,41.697,46.634,43.019,45.32,44.705z"/>
		<path style="fill-rule:evenodd;clip-rule:evenodd;fill:#FFFFFF;" d="M52.195,16.702c0.924-0.834,1.61-1.455,2.284-2.063
			c6.563,6.163,6.673,15.963,0.248,22.766c-0.438-0.246-0.968-0.468-1.4-0.812c-0.365-0.29-0.618-0.723-1.011-1.201
			C56.91,29.28,57.214,23.125,52.195,16.702z"/>
		<path style="fill-rule:evenodd;clip-rule:evenodd;fill:#FFFFFF;" d="M11.903,35.629c-0.845,0.728-1.478,1.272-2.074,1.785
			c-6.772-4.072-7.18-17.007-0.525-22.803c0.732,0.609,1.508,1.254,2.413,2.008C6.967,22.904,6.745,29.061,11.903,35.629z"/>
		<path style="fill-rule:evenodd;clip-rule:evenodd;fill:#FFFFFF;" d="M14.303,19.364c1,0.938,1.61,1.509,2.358,2.211
			c-1.308,2.816-2.52,5.688,0.271,8.531c-0.859,0.904-1.573,1.654-2.61,2.746c-0.736-1.18-1.424-2-1.804-2.943
			C11.033,26.218,11.584,22.825,14.303,19.364z"/>
		<path style="fill-rule:evenodd;clip-rule:evenodd;fill:#FFFFFF;" d="M46.884,21.448c0.848-0.592,1.624-1.133,2.687-1.875
			c0.582,0.773,1.289,1.429,1.648,2.238c1.674,3.765,1.278,7.303-1.509,10.843c-0.894-0.747-1.675-1.399-2.754-2.303
			C49.332,27.555,49.176,24.704,46.884,21.448z"/>
		<path style="fill-rule:evenodd;clip-rule:evenodd;fill:#FFFFFF;" d="M28.458,46.116c2.56,0,4.648,0,6.932,0
			c-0.319,2.26-1.513,3.221-3.401,3.264C30.042,49.424,28.961,48.33,28.458,46.116z"/>
	</g>
</g>
<g id="Layer_1">
</g>
</svg>
