<?xml version="1.0" encoding="iso-8859-1"?>
<!-- Generator: Adobe Illustrator 16.0.0, SVG Export Plug-In . SVG Version: 6.00 Build 0)  -->
<!DOCTYPE svg PUBLIC "-//W3C//DTD SVG 1.1//EN" "http://www.w3.org/Graphics/SVG/1.1/DTD/svg11.dtd">
<svg version="1.1" xmlns="http://www.w3.org/2000/svg" xmlns:xlink="http://www.w3.org/1999/xlink" x="0px" y="0px" width="64px"
	 height="64px" viewBox="0 0 64 64" style="enable-background:new 0 0 64 64;" xml:space="preserve">
<g id="background">
	<g>
		<path style="fill:#1A1A1A;" d="M52,0H12C5.373,0,0,5.373,0,12v40c0,6.627,5.373,12,12,12h40c6.627,0,12-5.373,12-12V12
			C64,5.373,58.627,0,52,0z M62.1,52c0,5.569-4.53,10.1-10.1,10.1H12c-5.569,0-10.1-4.53-10.1-10.1V12C1.9,6.431,6.431,1.9,12,1.9
			h40c5.569,0,10.1,4.531,10.1,10.1V52z"/>
		<path d="M52,1.9H12C6.431,1.9,1.9,6.431,1.9,12v40c0,5.569,4.531,10.1,10.1,10.1h40c5.569,0,10.1-4.53,10.1-10.1V12
			C62.1,6.431,57.569,1.9,52,1.9z"/>
	</g>
</g>
<g id="Layer_1">
</g>
</svg>
