<?xml version="1.0" encoding="iso-8859-1"?>
<!-- Generator: Adobe Illustrator 16.0.0, SVG Export Plug-In . SVG Version: 6.00 Build 0)  -->
<!DOCTYPE svg PUBLIC "-//W3C//DTD SVG 1.1//EN" "http://www.w3.org/Graphics/SVG/1.1/DTD/svg11.dtd">
<svg version="1.1" xmlns="http://www.w3.org/2000/svg" xmlns:xlink="http://www.w3.org/1999/xlink" x="0px" y="0px"
	 width="3307.2px" height="3103.241px" viewBox="0 0 3307.2 3103.241" style="enable-background:new 0 0 3307.2 3103.241;"
	 xml:space="preserve">
<g id="Bed">
	<rect x="-0.5" y="-0.5" style="fill:none;stroke:#000000;stroke-width:11;stroke-miterlimit:10;" width="2200" height="1800"/>
	<line style="fill:none;stroke:#000000;stroke-width:11;stroke-miterlimit:10;" x1="561.5" y1="0" x2="561.5" y2="1800"/>
	<path style="fill:none;stroke:#000000;stroke-width:11;stroke-miterlimit:10;" d="M493.5,783.5c0,6.627-5.373,12-12,12h-368
		c-6.627,0-12-5.373-12-12v-544c0-6.627,5.373-12,12-12h368c6.627,0,12,5.373,12,12V783.5z"/>
	<path style="fill:none;stroke:#000000;stroke-width:11;stroke-miterlimit:10;" d="M493.5,1559.5c0,6.627-5.373,12-12,12h-368
		c-6.627,0-12-5.373-12-12v-544c0-6.627,5.373-12,12-12h368c6.627,0,12,5.373,12,12V1559.5z"/>
</g>
<g id="Layer_1">
</g>
</svg>
