<?xml version="1.0" encoding="iso-8859-1"?>
<!-- Generator: Adobe Illustrator 16.0.0, SVG Export Plug-In . SVG Version: 6.00 Build 0)  -->
<!DOCTYPE svg PUBLIC "-//W3C//DTD SVG 1.1//EN" "http://www.w3.org/Graphics/SVG/1.1/DTD/svg11.dtd">
<svg version="1.1" xmlns="http://www.w3.org/2000/svg" xmlns:xlink="http://www.w3.org/1999/xlink" x="0px" y="0px" width="64px"
	 height="64px" viewBox="0 0 64 64" style="enable-background:new 0 0 64 64;" xml:space="preserve">
<g id="dlc">
	<g>
		<path style="fill:#1A1A1A;" d="M52,0H12C5.373,0,0,5.373,0,12v40c0,6.627,5.373,12,12,12h40c6.627,0,12-5.373,12-12V12
			C64,5.373,58.627,0,52,0z M62.1,52c0,5.569-4.53,10.1-10.1,10.1H12c-5.569,0-10.1-4.53-10.1-10.1V12C1.9,6.431,6.431,1.9,12,1.9
			h40c5.569,0,10.1,4.531,10.1,10.1V52z"/>
		<path d="M52,1.9H12C6.431,1.9,1.9,6.431,1.9,12v40c0,5.569,4.531,10.1,10.1,10.1h40c5.569,0,10.1-4.53,10.1-10.1V12
			C62.1,6.431,57.569,1.9,52,1.9z"/>
	</g>
	<path style="fill:#FFFFFF;" d="M53.493,14.695H42.299V9.037H36.93V7.475h-9.86v1.562h-5.369v5.659h-10.24l-6.55,2.863v17.596
		l5.088,3.363h42.482l6.608-2.889V18.394L53.493,14.695z M23.784,20.36h-7.126v-3.124h7.126V20.36z M36.279,20.36h-7.126v-3.124
		h7.126V20.36z M48.774,20.36h-7.126v-3.124h7.126V20.36z"/>
	<g>
		<path style="fill:#FFFFFF;" d="M13.117,42.869c1.313-0.197,2.875-0.347,4.585-0.347c3.099,0,5.305,0.72,6.767,2.082
			c1.487,1.363,2.354,3.296,2.354,5.998c0,2.726-0.843,4.956-2.404,6.493c-1.562,1.562-4.14,2.404-7.387,2.404
			c-1.537,0-2.825-0.073-3.916-0.199V42.869z M15.273,57.641c0.546,0.099,1.339,0.124,2.182,0.124c4.61,0,7.113-2.577,7.113-7.088
			c0.025-3.94-2.206-6.445-6.767-6.445c-1.115,0-1.958,0.101-2.528,0.225V57.641z"/>
		<path style="fill:#FFFFFF;" d="M29.62,42.645h2.157v14.896h7.138v1.811H29.62V42.645z"/>
		<path style="fill:#FFFFFF;" d="M52.025,58.807c-0.792,0.396-2.379,0.792-4.411,0.792c-4.709,0-8.253-2.975-8.253-8.451
			c0-5.229,3.544-8.773,8.723-8.773c2.082,0,3.397,0.445,3.968,0.742l-0.521,1.761c-0.816-0.396-1.983-0.695-3.37-0.695
			c-3.917,0-6.521,2.505-6.521,6.892c0,4.09,2.354,6.718,6.423,6.718c1.312,0,2.651-0.274,3.517-0.695L52.025,58.807z"/>
	</g>
</g>
<g id="Layer_1">
</g>
</svg>
