<?xml version="1.0" encoding="iso-8859-1"?>
<!-- Generator: Adobe Illustrator 16.0.0, SVG Export Plug-In . SVG Version: 6.00 Build 0)  -->
<!DOCTYPE svg PUBLIC "-//W3C//DTD SVG 1.1//EN" "http://www.w3.org/Graphics/SVG/1.1/DTD/svg11.dtd">
<svg version="1.1" xmlns="http://www.w3.org/2000/svg" xmlns:xlink="http://www.w3.org/1999/xlink" x="0px" y="0px" width="64px"
	 height="64px" viewBox="0 0 64 64" style="enable-background:new 0 0 64 64;" xml:space="preserve">
<g id="light-switch">
	<g>
		<path style="fill:#1A1A1A;" d="M52,0H12C5.373,0,0,5.373,0,12v40c0,6.627,5.373,12,12,12h40c6.627,0,12-5.373,12-12V12
			C64,5.373,58.627,0,52,0z M62.1,52c0,5.569-4.53,10.1-10.1,10.1H12c-5.569,0-10.1-4.53-10.1-10.1V12C1.9,6.431,6.431,1.9,12,1.9
			h40c5.569,0,10.1,4.531,10.1,10.1V52z"/>
		<path d="M52,1.9H12C6.431,1.9,1.9,6.431,1.9,12v40c0,5.569,4.531,10.1,10.1,10.1h40c5.569,0,10.1-4.53,10.1-10.1V12
			C62.1,6.431,57.569,1.9,52,1.9z"/>
	</g>
	<path style="fill:#FFFFFF;" d="M31.946,57.687c-8.111,0-16.222,0-24.332,0c-1.346,0-1.345,0-1.345-1.311c0-16.294,0-32.59,0-48.885
		c0-1.183-0.001-1.186,1.181-1.186c16.37-0.001,32.739-0.001,49.107,0c1.162,0,1.16,0.003,1.16,1.133
		c0.002,16.517-0.002,33.034,0.021,49.55c0.003,0.753-0.38,0.701-0.869,0.701C48.563,57.685,40.255,57.687,31.946,57.687z
		 M30.223,32.01c0-6.799,0-13.597,0-20.395c0-0.896-0.039-0.946-0.92-0.947c-6.271-0.004-12.541,0-18.811-0.01
		c-0.623-0.001-0.896,0.177-0.895,0.871C9.614,25.125,9.609,38.723,9.611,52.32c0,1.012,0.038,1.048,1.044,1.048
		c6.178,0.001,12.356,0.001,18.535,0.001c1.032,0,1.033-0.001,1.033-1.032C30.223,45.562,30.223,38.786,30.223,32.01z M34.863,32.01
		c0,6.8,0,13.599,0,20.398c0,0.959,0.007,0.961,0.958,0.961c5.79,0,11.576,0,17.367,0c1.186,0,1.188,0,1.188-1.183
		c0.001-13.528,0.001-27.059,0.001-40.59c0-0.852-0.075-0.93-0.953-0.931c-5.856-0.002-11.714-0.002-17.571,0.001
		c-0.974,0-0.989,0.022-0.989,1.012C34.863,18.456,34.863,25.233,34.863,32.01z"/>
</g>
<g id="Layer_1">
</g>
</svg>
