<?xml version="1.0" encoding="iso-8859-1"?>
<!-- Generator: Adobe Illustrator 16.0.0, SVG Export Plug-In . SVG Version: 6.00 Build 0)  -->
<!DOCTYPE svg PUBLIC "-//W3C//DTD SVG 1.1//EN" "http://www.w3.org/Graphics/SVG/1.1/DTD/svg11.dtd">
<svg version="1.1" xmlns="http://www.w3.org/2000/svg" xmlns:xlink="http://www.w3.org/1999/xlink" x="0px" y="0px" width="64px"
	 height="64px" viewBox="0 0 64 64" style="enable-background:new 0 0 64 64;" xml:space="preserve">
<g id="light-bulb">
	<g>
		<path style="fill:#1A1A1A;" d="M52,0H12C5.373,0,0,5.373,0,12v40c0,6.627,5.373,12,12,12h40c6.627,0,12-5.373,12-12V12
			C64,5.373,58.627,0,52,0z M62.1,52c0,5.569-4.53,10.1-10.1,10.1H12c-5.569,0-10.1-4.53-10.1-10.1V12C1.9,6.431,6.431,1.9,12,1.9
			h40c5.569,0,10.1,4.531,10.1,10.1V52z"/>
		<path d="M52,1.9H12C6.431,1.9,1.9,6.431,1.9,12v40c0,5.569,4.531,10.1,10.1,10.1h40c5.569,0,10.1-4.53,10.1-10.1V12
			C62.1,6.431,57.569,1.9,52,1.9z"/>
	</g>
	<g>
		<path style="fill-rule:evenodd;clip-rule:evenodd;fill:#FFFFFF;" d="M32,51.677c-1.604,0-3.206,0.006-4.808,0
			c-0.812-0.002-1.22-0.313-1.182-0.921c0.045-0.72,0.533-0.863,1.155-0.86c3.231,0.009,6.462,0.009,9.693,0
			c0.627-0.003,1.104,0.154,1.143,0.875c0.032,0.593-0.352,0.901-1.117,0.904C35.256,51.683,33.628,51.677,32,51.677z"/>
		<path style="fill-rule:evenodd;clip-rule:evenodd;fill:#FFFFFF;" d="M31.966,54.404c-1.502,0-3.004-0.005-4.506,0.003
			c-0.611,0.006-1.118-0.11-1.153-0.853c-0.028-0.582,0.364-0.903,1.12-0.903c3.054-0.009,6.108-0.009,9.162,0
			c0.756,0.002,1.145,0.325,1.117,0.909c-0.034,0.685-0.485,0.85-1.083,0.847C35.07,54.399,33.519,54.404,31.966,54.404z"/>
		<path style="fill-rule:evenodd;clip-rule:evenodd;fill:#FFFFFF;" d="M44.106,43.757c0.337,0.223,0.612,0.353,0.814,0.555
			c1.75,1.729,3.483,3.472,5.227,5.206c0.435,0.434,0.554,0.908,0.168,1.404c-0.346,0.443-0.902,0.383-1.438-0.146
			c-1.747-1.729-3.499-3.455-5.203-5.226c-0.246-0.251-0.359-0.759-0.313-1.12C43.395,44.189,43.817,44.002,44.106,43.757z"/>
		<path style="fill-rule:evenodd;clip-rule:evenodd;fill:#FFFFFF;" d="M19.92,21.54c-0.344-0.228-0.62-0.353-0.823-0.554
			c-1.748-1.728-3.488-3.467-5.22-5.21c-0.499-0.503-0.549-1.092-0.14-1.447c0.514-0.447,0.965-0.25,1.385,0.171
			c1.755,1.761,3.526,3.505,5.25,5.295c0.228,0.237,0.337,0.724,0.277,1.056C20.604,21.102,20.203,21.289,19.92,21.54z"/>
		<path style="fill-rule:evenodd;clip-rule:evenodd;fill:#FFFFFF;" d="M50.682,14.932c-0.216,0.341-0.334,0.618-0.53,0.816
			c-1.74,1.763-3.496,3.51-5.246,5.262c-0.423,0.426-0.902,0.601-1.377,0.141c-0.47-0.457-0.343-0.942,0.093-1.377
			c1.771-1.768,3.528-3.553,5.329-5.292c0.237-0.229,0.718-0.346,1.048-0.291C50.243,14.231,50.427,14.638,50.682,14.932z"/>
		<path style="fill-rule:evenodd;clip-rule:evenodd;fill:#FFFFFF;" d="M13.33,50.337c0.225-0.339,0.349-0.609,0.547-0.811
			c1.725-1.743,3.459-3.475,5.2-5.204c0.523-0.521,1.066-0.582,1.435-0.163c0.468,0.538,0.248,1.009-0.189,1.445
			c-1.736,1.729-3.454,3.478-5.222,5.177c-0.251,0.239-0.752,0.35-1.109,0.306C13.758,51.057,13.576,50.635,13.33,50.337z"/>
		<path style="fill-rule:evenodd;clip-rule:evenodd;fill:#FFFFFF;" d="M31.114,11.552c0-1.226,0.005-2.453-0.002-3.68
			c-0.004-0.607,0.207-1.037,0.87-1.081c0.581-0.039,0.914,0.364,0.915,1.104c0.006,2.453,0.006,4.908-0.001,7.361
			c0,0.712-0.366,1.192-0.9,1.139c-0.674-0.069-0.895-0.522-0.886-1.163C31.127,14.007,31.114,12.779,31.114,11.552z"/>
		<path style="fill-rule:evenodd;clip-rule:evenodd;fill:#FFFFFF;" d="M10.917,33.548c-1.179,0-2.358,0.001-3.538,0
			c-0.807,0-1.24-0.307-1.253-0.88c-0.012-0.576,0.409-0.922,1.21-0.926c2.409-0.011,4.818-0.007,7.228,0.001
			c0.595,0.001,1.124,0.145,1.163,0.881c0.032,0.606-0.353,0.901-1.194,0.908c-1.204,0.011-2.41,0.002-3.614,0.002
			C10.917,33.539,10.917,33.544,10.917,33.548z"/>
		<path style="fill-rule:evenodd;clip-rule:evenodd;fill:#FFFFFF;" d="M53.031,33.532c-1.205,0-2.41,0.001-3.613,0
			c-0.612,0-1.136-0.158-1.128-0.896c0.009-0.736,0.55-0.891,1.147-0.894c2.435-0.008,4.868-0.01,7.302,0
			c0.603,0.003,1.144,0.192,1.135,0.912c-0.009,0.722-0.545,0.879-1.154,0.879C55.49,33.533,54.262,33.533,53.031,33.532z"/>
		<path style="fill-rule:evenodd;clip-rule:evenodd;fill:#FFFFFF;" d="M32.015,55.441c0.852,0,1.702,0,2.555-0.002
			c0.562,0,0.945,0.264,0.968,0.824c0.026,0.598-0.372,0.927-0.948,0.932c-1.73,0.021-3.458,0.021-5.186,0.004
			c-0.545-0.007-0.931-0.326-0.931-0.88c-0.001-0.602,0.392-0.88,0.988-0.878C30.312,55.444,31.163,55.441,32.015,55.441z"/>
		<path style="fill-rule:evenodd;clip-rule:evenodd;fill:#FFFFFF;" d="M45.107,30.786c-0.997-7.243-8.404-12.503-15.587-10.952
			c-5.083,1.099-8.606,4.137-10.154,9.119c-1.556,5.008-0.384,9.503,3.254,13.304c1.218,1.271,1.912,2.719,1.932,4.498
			c0.017,1.478,0.669,2.099,2.136,2.104c1.781,0.006,3.563,0,5.344,0c1.731,0,3.462,0.006,5.194,0
			c1.566-0.003,2.211-0.606,2.237-2.159c0.029-1.719,0.666-3.155,1.863-4.371C44.493,39.107,45.725,35.259,45.107,30.786z"/>
	</g>
</g>
<g id="Layer_1">
</g>
</svg>
