<svg version="1.1" id="Layer_1"
	xmlns="http://www.w3.org/2000/svg"
	xmlns:xlink="http://www.w3.org/1999/xlink" x="0px" y="0px" width="64px" height="64px" viewBox="0 0 64 64" xml:space="preserve">
	<style>
	polygon,
		path {
			fill: #333;
		}
		@media ( prefers-color-scheme: dark ) {
			path {
	polygon,
				fill: #2ec4b6;
			}
		}
	</style>
	<polygon points="60.104,45.459 49.936,17.617 31.157,6.598 33.022,3.419 52.943,15.109 63.564,44.195 "/>
	<g>
		<path d="M7.09,17.74c2.437-0.406,5.627-0.754,9.689-0.754c4.989,0,8.644,1.16,10.965,3.249c2.146,1.856,3.423,4.7,3.423,8.18
		c0,3.54-1.044,6.324-3.017,8.354c-2.669,2.844-7.02,4.293-11.951,4.293c-1.509,0-2.901-0.058-4.061-0.348v15.664H7.09V17.74z
		 M12.138,36.595c1.102,0.29,2.494,0.406,4.177,0.406c6.092,0,9.805-2.958,9.805-8.354c0-5.164-3.656-7.659-9.225-7.659
		c-2.205,0-3.887,0.174-4.757,0.406V36.595z"/>
	</g>
	<g>
		<path d="M50.935,29.064c0,9.089-6.296,13.049-12.236,13.049c-6.651,0-11.78-4.875-11.78-12.644c0-8.225,5.381-13.048,12.185-13.048
		C46.161,16.421,50.935,21.549,50.935,29.064z M31.438,29.317c0,5.383,3.096,9.445,7.463,9.445c4.266,0,7.464-4.013,7.464-9.546
		c0-4.164-2.082-9.444-7.362-9.444C33.722,19.772,31.438,24.646,31.438,29.317z"/>
	</g>
</svg>
