<?xml version="1.0" encoding="iso-8859-1"?>
<!-- Generator: Adobe Illustrator 16.0.0, SVG Export Plug-In . SVG Version: 6.00 Build 0)  -->
<!DOCTYPE svg PUBLIC "-//W3C//DTD SVG 1.1//EN" "http://www.w3.org/Graphics/SVG/1.1/DTD/svg11.dtd">
<svg version="1.1" xmlns="http://www.w3.org/2000/svg" xmlns:xlink="http://www.w3.org/1999/xlink" x="0px" y="0px" width="64px"
	 height="64px" viewBox="0 0 64 64" style="enable-background:new 0 0 64 64;" xml:space="preserve">
<g id="socket">
	<g>
		<path d="M52,0H12C5.373,0,0,5.373,0,12v40c0,6.627,5.373,12,12,12h40c6.627,0,12-5.373,12-12V12C64,5.373,58.627,0,52,0z"/>
		<path d="M12,62C6.486,62,2,57.514,2,52V12C2,6.486,6.486,2,12,2h40c5.514,0,10,4.486,10,10v40c0,5.514-4.486,10-10,10H12z"/>
	</g>
	<path style="fill:#FFFFFF;" d="M25.302,5.499C14.981,8.173,7.229,16.409,5.098,26.927c-0.302,1.481-0.348,2.16-0.348,5.108
		c0,3.837,0.228,5.394,1.223,8.431c2.932,8.989,10.473,15.973,19.616,18.164c0.68,0.166,1.315,0.303,1.42,0.303
		c0.136,0,0.182-0.576,0.182-2.357c0-2.555,0.121-3.038,0.861-3.371c0.228-0.104,1.723-0.166,4.065-0.166h3.718l0.513,0.515
		l0.515,0.515v2.432c0,1.844,0.046,2.434,0.197,2.434c0.089,0,0.724-0.137,1.405-0.303c5.334-1.267,10.715-4.532,14.189-8.597
		c3.308-3.87,5.364-8.146,6.345-13.165c0.347-1.736,0.471-5.997,0.229-8.007c-0.212-1.874-0.999-5.049-1.648-6.68
		c-2.706-6.829-7.918-12.27-14.521-15.171c-1.542-0.681-4.415-1.602-5.546-1.799l-0.648-0.104v2.373c0,3.702,0.21,3.551-4.837,3.551
		s-4.835,0.151-4.835-3.536C27.19,4.758,27.387,4.971,25.302,5.499z M21.222,27.713c1.042,0.513,2.086,1.677,2.448,2.705
		c0.363,1.058,0.333,2.553-0.075,3.459c-0.408,0.936-1.437,2.025-2.373,2.508c-0.65,0.349-0.952,0.409-2.04,0.409
		c-1.104,0-1.405-0.061-2.146-0.425c-0.937-0.467-1.754-1.269-2.252-2.251c-0.408-0.786-0.543-2.477-0.302-3.397
		c0.393-1.436,1.858-2.917,3.324-3.325C18.834,27.108,20.239,27.245,21.222,27.713z M47.019,27.713
		c0.92,0.438,1.721,1.224,2.266,2.237c0.288,0.542,0.347,0.875,0.347,2.085c0,1.209-0.059,1.54-0.347,2.083
		c-0.529,0.999-1.33,1.801-2.266,2.254c-0.742,0.361-1.044,0.422-2.148,0.422c-1.089,0-1.39-0.061-2.038-0.409
		c-0.939-0.482-1.966-1.572-2.389-2.508c-0.422-0.982-0.422-2.703,0-3.671C41.591,27.653,44.523,26.534,47.019,27.713z"/>
</g>
<g id="Layer_1">
</g>
</svg>
