<?xml version="1.0" encoding="iso-8859-1"?>
<!-- Generator: Adobe Illustrator 16.0.0, SVG Export Plug-In . SVG Version: 6.00 Build 0)  -->
<!DOCTYPE svg PUBLIC "-//W3C//DTD SVG 1.1//EN" "http://www.w3.org/Graphics/SVG/1.1/DTD/svg11.dtd">
<svg version="1.1" xmlns="http://www.w3.org/2000/svg" xmlns:xlink="http://www.w3.org/1999/xlink" x="0px" y="0px" width="64px"
	 height="64px" viewBox="0 0 64 64" style="enable-background:new 0 0 64 64;" xml:space="preserve">
<g id="temperature">
	<g>
		<path style="fill:#1A1A1A;" d="M52,0H12C5.373,0,0,5.373,0,12v40c0,6.627,5.373,12,12,12h40c6.627,0,12-5.373,12-12V12
			C64,5.373,58.627,0,52,0z M62.1,52c0,5.569-4.53,10.1-10.1,10.1H12c-5.569,0-10.1-4.53-10.1-10.1V12C1.9,6.431,6.431,1.9,12,1.9
			h40c5.569,0,10.1,4.531,10.1,10.1V52z"/>
		<path d="M52,1.9H12C6.431,1.9,1.9,6.431,1.9,12v40c0,5.569,4.531,10.1,10.1,10.1h40c5.569,0,10.1-4.53,10.1-10.1V12
			C62.1,6.431,57.569,1.9,52,1.9z"/>
	</g>
	<g>
		<path style="fill-rule:evenodd;clip-rule:evenodd;fill:#FFFFFF;" d="M33.44,23.248c0.001,4.061,0.015,8.122-0.011,12.184
			c-0.006,0.686,0.181,1.121,0.754,1.562c4.487,3.458,5.984,9.26,3.799,14.503c-2.078,4.987-7.586,8.093-13.02,7.345
			c-5.192-0.716-9.344-4.159-10.51-9.01c-1.259-5.235,0.304-9.59,4.505-13.008c0.347-0.283,0.577-0.914,0.579-1.385
			c0.035-7.975,0.02-15.949,0.027-23.923c0.005-4.895,3.849-8.019,8.632-7.035c2.948,0.606,5.208,3.401,5.234,6.584
			C33.464,15.125,33.439,19.187,33.44,23.248z M30.546,12.503c0.414-2.813-0.802-4.893-3.035-5.392
			c-2.825-0.631-5.172,1.309-5.178,4.326c-0.014,8.343-0.025,16.685,0.021,25.027c0.005,1.041-0.291,1.642-1.171,2.225
			c-2.913,1.925-4.417,4.65-4.353,8.204c0.087,4.822,3.79,8.802,8.694,9.282c4.92,0.482,9.481-2.761,10.465-7.443
			c0.839-3.989-0.701-7.768-4.195-10.065c-0.828-0.543-1.164-1.113-1.146-2.124c0.066-3.654,0.026-7.309,0.026-10.963
			c0-0.693,0-1.386,0-2.208c-1.906,0-3.696,0-5.518,0c0-0.952,0-1.772,0-2.73c1.865,0,3.652,0,5.417,0c0-1.884,0-3.63,0-5.517
			c-1.881,0-3.664,0-5.431,0c0-0.941,0-1.737,0-2.622C26.967,12.503,28.727,12.503,30.546,12.503z"/>
		<path style="fill-rule:evenodd;clip-rule:evenodd;fill:#FFFFFF;" d="M25.077,28.928c0.988,0,1.854,0,2.849,0
			c0,2.399,0.159,4.765-0.045,7.097c-0.205,2.365,0.417,3.909,2.605,5.16c2.607,1.489,3.541,4.755,2.646,7.453
			c-0.994,2.99-3.566,4.855-6.682,4.84c-3.071-0.013-5.691-1.962-6.625-4.933c-0.832-2.643,0.124-5.913,2.683-7.357
			c2.251-1.269,2.826-2.873,2.613-5.263C24.917,33.627,25.077,31.299,25.077,28.928z"/>
	</g>
	<g>
		<path style="fill:#FFFFFF;" d="M46.883,15.307c0,1.378-1.105,2.28-2.279,2.28c-1.326,0-2.229-1.004-2.229-2.195
			c-0.018-1.31,1.004-2.297,2.262-2.297C46.033,13.095,46.883,14.15,46.883,15.307z M43.293,15.392c0,0.783,0.578,1.395,1.328,1.395
			c0.766,0,1.344-0.629,1.344-1.463c0-0.63-0.375-1.429-1.344-1.429C43.736,13.895,43.293,14.661,43.293,15.392z"/>
		<path style="fill:#FFFFFF;" d="M56.596,24.375c-0.545,0.272-1.633,0.544-3.027,0.544c-3.232,0-5.666-2.042-5.666-5.801
			c0-3.59,2.434-6.023,5.988-6.023c1.43,0,2.33,0.306,2.723,0.51l-0.357,1.208c-0.563-0.272-1.361-0.476-2.314-0.476
			c-2.688,0-4.475,1.718-4.475,4.729c0,2.807,1.617,4.611,4.406,4.611c0.902,0,1.82-0.187,2.416-0.477L56.596,24.375z"/>
	</g>
	<g>
		<path style="fill:#FFFFFF;" d="M46.883,36.096c0,1.379-1.105,2.28-2.279,2.28c-1.326,0-2.229-1.004-2.229-2.194
			c-0.018-1.311,1.004-2.297,2.262-2.297C46.033,33.885,46.883,34.939,46.883,36.096z M43.293,36.182
			c0,0.782,0.578,1.395,1.328,1.395c0.766,0,1.344-0.629,1.344-1.463c0-0.63-0.375-1.43-1.344-1.43
			C43.736,34.684,43.293,35.449,43.293,36.182z"/>
		<path style="fill:#FFFFFF;" d="M48.582,34.071h6.176v1.242h-4.695v3.812H54.4v1.225h-4.338v5.189h-1.48V34.071z"/>
	</g>
</g>
<g id="Layer_1">
</g>
</svg>
