<?xml version="1.0" encoding="iso-8859-1"?>
<!-- Generator: Adobe Illustrator 16.0.0, SVG Export Plug-In . SVG Version: 6.00 Build 0)  -->
<!DOCTYPE svg PUBLIC "-//W3C//DTD SVG 1.1//EN" "http://www.w3.org/Graphics/SVG/1.1/DTD/svg11.dtd">
<svg version="1.1" xmlns="http://www.w3.org/2000/svg" xmlns:xlink="http://www.w3.org/1999/xlink" x="0px" y="0px" width="64px"
	 height="64px" viewBox="0 0 64 64" style="enable-background:new 0 0 64 64;" xml:space="preserve">
<g id="toilet">
	<g>
		<path style="fill:#1A1A1A;" d="M52,0H12C5.373,0,0,5.373,0,12v40c0,6.627,5.373,12,12,12h40c6.627,0,12-5.373,12-12V12
			C64,5.373,58.627,0,52,0z M62.1,52c0,5.569-4.53,10.1-10.1,10.1H12c-5.569,0-10.1-4.53-10.1-10.1V12C1.9,6.431,6.431,1.9,12,1.9
			h40c5.569,0,10.1,4.531,10.1,10.1V52z"/>
		<path d="M52,1.9H12C6.431,1.9,1.9,6.431,1.9,12v40c0,5.569,4.531,10.1,10.1,10.1h40c5.569,0,10.1-4.53,10.1-10.1V12
			C62.1,6.431,57.569,1.9,52,1.9z"/>
	</g>
	<g>
		<path style="fill-rule:evenodd;clip-rule:evenodd;fill:#F2F2F2;" d="M47.14,7.736c0,3.626,0.328,7.138-0.082,10.56
			c-0.499,4.151-2.999,7.03-7.12,8.3c-0.364,0.111-0.722,0.24-1.146,0.381c0,0.453,0,0.866,0,1.407
			c0.501,0.109,0.973,0.17,1.415,0.316c1.919,0.636,3.849,1.241,5.729,1.98c0.641,0.251,1.208,0.801,1.692,1.323
			c0.925,0.997,0.979,2.108,0.049,3.116c-0.64,0.691-1.442,1.295-2.278,1.73c-3.156,1.65-6.624,2.1-10.108,2.279
			c-4.706,0.246-9.39,0.008-13.843-1.75c-1.103-0.436-2.189-1.059-3.089-1.826c-1.401-1.195-1.355-2.592-0.026-3.876
			c1.436-1.388,3.277-2.014,5.145-2.538c1.064-0.297,2.158-0.489,3.378-0.759c0.026-0.471,0.053-0.919,0.081-1.392
			c-0.437-0.147-0.748-0.265-1.066-0.355c-4.447-1.271-7.389-5.128-7.417-9.772c-0.02-2.991-0.004-5.983-0.004-9.125
			C28.039,7.736,37.517,7.736,47.14,7.736z M42.788,34.436c0.151-1.783-1.026-2.215-2.024-2.536
			c-5.25-1.69-10.541-1.688-15.799-0.024c-0.933,0.295-2.096,0.69-2.092,1.917c0.004,1.223,1.163,1.613,2.1,1.908
			c5.21,1.641,10.451,1.662,15.661,0.006C41.455,35.445,42.16,34.816,42.788,34.436z"/>
		<path style="fill-rule:evenodd;clip-rule:evenodd;fill:#F2F2F2;" d="M17.713,36.629c7.23,5.049,23.247,4.852,30.168,0.029
			c-0.045,0.4-0.039,0.703-0.114,0.982c-0.918,3.385-2.808,6.115-5.573,8.25c-0.345,0.264-0.685,0.541-1.056,0.764
			c-1.851,1.107-2.281,2.717-1.802,4.73c0.322,1.361,0.531,2.75,0.774,4.129c0.082,0.469,0.11,0.947,0.154,1.34
			c-2.476,2.912-12.225,2.938-14.938-0.049c0.291-1.646,0.499-3.473,0.954-5.234c0.574-2.219,0.005-3.805-1.938-5.078
			c-3.316-2.174-5.524-5.211-6.509-9.086C17.789,37.227,17.776,37.039,17.713,36.629z"/>
		<path style="fill-rule:evenodd;clip-rule:evenodd;fill:#F2F2F2;" d="M30.241,3.846c0.23-0.336,0.442-0.646,0.705-1.03
			c1.209,0,2.448,0,3.758,0c0.232,0.327,0.475,0.668,0.854,1.2c4.06,0,8.2-0.001,12.339,0.007c0.074,0,0.149,0.113,0.317,0.25
			c0,0.57,0,1.216,0,2.007c-10.251,0-20.4,0-30.721,0c-0.055-0.681-0.108-1.32-0.186-2.275C21.696,3.702,25.959,3.983,30.241,3.846z
			"/>
		<path style="fill-rule:evenodd;clip-rule:evenodd;fill:#F2F2F2;" d="M23.973,33.836c3.319-2.668,14.711-2.628,17.633-0.032
			c-0.741,0.804-1.609,1.163-2.704,0.917c-4.018-0.91-8.042-0.937-12.057-0.006C25.73,34.973,24.892,34.564,23.973,33.836z"/>
	</g>
</g>
<g id="Layer_1">
</g>
</svg>
