<?xml version="1.0" encoding="iso-8859-1"?>
<!-- Generator: Adobe Illustrator 16.0.0, SVG Export Plug-In . SVG Version: 6.00 Build 0)  -->
<!DOCTYPE svg PUBLIC "-//W3C//DTD SVG 1.1//EN" "http://www.w3.org/Graphics/SVG/1.1/DTD/svg11.dtd">
<svg version="1.1" xmlns="http://www.w3.org/2000/svg" xmlns:xlink="http://www.w3.org/1999/xlink" x="0px" y="0px" width="64px"
	 height="64px" viewBox="0 0 64 64" style="enable-background:new 0 0 64 64;" xml:space="preserve">
<g id="vent-in">
	<g>
		<path style="fill:#1A1A1A;" d="M52,0H12C5.373,0,0,5.373,0,12v40c0,6.627,5.373,12,12,12h40c6.627,0,12-5.373,12-12V12
			C64,5.373,58.627,0,52,0z M62.1,52c0,5.569-4.53,10.1-10.1,10.1H12c-5.569,0-10.1-4.53-10.1-10.1V12C1.9,6.431,6.431,1.9,12,1.9
			h40c5.569,0,10.1,4.531,10.1,10.1V52z"/>
		<path d="M52,1.9H12C6.431,1.9,1.9,6.431,1.9,12v40c0,5.569,4.531,10.1,10.1,10.1h40c5.569,0,10.1-4.53,10.1-10.1V12
			C62.1,6.431,57.569,1.9,52,1.9z"/>
	</g>
	<g>
		<path style="fill-rule:evenodd;clip-rule:evenodd;fill:#FFFFFF;" d="M23.768,42.216c-2.365-0.039-4.21-1.656-4.587-3.871
			c-0.354-2.087,0.646-3.853,2.788-4.613c1.925-0.684,3.903-1.229,5.87-1.793c0.635-0.18,1.075-0.369,1.223-1.142
			c0.117-0.609,0.444-1.327,0.915-1.691c0.897-0.694,0.702-1.32,0.36-2.193c-0.662-1.688-1.236-3.417-1.743-5.159
			c-0.611-2.098-0.047-3.704,1.55-4.808c1.492-1.032,3.736-1.025,5.258,0.016c1.523,1.042,2.125,2.7,1.54,4.715
			c-0.55,1.889-1.218,3.746-1.897,5.595c-0.24,0.651-0.274,1.07,0.303,1.611c0.508,0.474,0.913,1.182,1.083,1.856
			c0.197,0.785,0.635,1.018,1.315,1.213c1.967,0.563,3.945,1.11,5.862,1.818c2.244,0.827,3.231,2.926,2.577,5.122
			c-0.67,2.256-2.875,3.754-5.064,3.234c-0.839-0.199-1.745-0.74-2.299-1.396c-1.268-1.5-2.366-3.146-3.469-4.777
			c-0.398-0.589-0.705-0.825-1.48-0.612c-0.703,0.194-1.557,0.181-2.254-0.03c-0.788-0.24-1.073,0.039-1.471,0.616
			c-1.183,1.715-2.407,3.403-3.679,5.053C25.766,41.891,24.752,42.268,23.768,42.216z"/>
	</g>
	<path style="fill:#FFFFFF;" d="M32.746,56.256C19.372,56.256,8.491,45.374,8.491,32c0-13.375,10.881-24.256,24.255-24.256
		c13.375,0,24.256,10.881,24.256,24.256C57.002,45.374,46.121,56.256,32.746,56.256z M32.746,12.457
		c-10.776,0-19.542,8.767-19.542,19.543c0,10.776,8.767,19.543,19.542,19.543c10.777,0,19.544-8.767,19.544-19.543
		C52.29,21.224,43.523,12.457,32.746,12.457z"/>
</g>
<g id="Layer_1">
</g>
</svg>
