<?xml version="1.0" encoding="iso-8859-1"?>
<!-- Generator: Adobe Illustrator 16.0.0, SVG Export Plug-In . SVG Version: 6.00 Build 0)  -->
<!DOCTYPE svg PUBLIC "-//W3C//DTD SVG 1.1//EN" "http://www.w3.org/Graphics/SVG/1.1/DTD/svg11.dtd">
<svg version="1.1" xmlns="http://www.w3.org/2000/svg" xmlns:xlink="http://www.w3.org/1999/xlink" x="0px" y="0px" width="64px"
	 height="64px" viewBox="0 0 64 64" style="enable-background:new 0 0 64 64;" xml:space="preserve">
<g id="water-warm">
	<g>
		<path style="fill:#1A1A1A;" d="M52,0H12C5.373,0,0,5.373,0,12v40c0,6.627,5.373,12,12,12h40c6.627,0,12-5.373,12-12V12
			C64,5.373,58.627,0,52,0z M62.1,52c0,5.569-4.53,10.1-10.1,10.1H12c-5.569,0-10.1-4.53-10.1-10.1V12C1.9,6.431,6.431,1.9,12,1.9
			h40c5.569,0,10.1,4.531,10.1,10.1V52z"/>
		<path d="M52,1.9H12C6.431,1.9,1.9,6.431,1.9,12v40c0,5.569,4.531,10.1,10.1,10.1h40c5.569,0,10.1-4.53,10.1-10.1V12
			C62.1,6.431,57.569,1.9,52,1.9z"/>
	</g>
	<g>
		<path style="fill-rule:evenodd;clip-rule:evenodd;fill:#F2F2F2;" d="M46.371,60.685c-1.529-0.383-2.768-1.157-3.621-2.485
			c-0.91-1.419-1.145-2.935-0.551-4.543c0.781-2.118,1.992-4.002,3.236-5.863c0.578-0.864,1.195-1.701,1.795-2.554
			c0.082,0.031,0.143,0.035,0.17,0.067c1.764,2.142,3.385,4.379,4.51,6.937c0.586,1.331,0.938,2.708,0.564,4.164
			c-0.539,2.093-1.811,3.506-3.918,4.113c-0.111,0.032-0.221,0.066-0.322,0.164H46.371z M50.158,57.861
			c0.059,0.018,0.119,0.034,0.18,0.051c0.924-0.837,0.938-1.964,0.836-3.103c-0.104-1.149-0.434-1.695-1.016-1.819
			C50.158,54.617,50.158,56.239,50.158,57.861z"/>
		<path style="fill-rule:evenodd;clip-rule:evenodd;fill:#F2F2F2;" d="M26.784,5.625c0.394,0.308,0.837,0.571,1.162,0.939
			c0.2,0.227,0.301,0.614,0.305,0.93c0.025,2.223,0.014,4.447,0.012,6.67c0,0.051-0.021,0.101-0.039,0.19c-1.61,0-3.224,0-4.887,0
			c-0.009-0.175-0.025-0.344-0.025-0.514c-0.002-1.888,0.04-3.777-0.017-5.664c-0.037-1.245,0.374-2.124,1.584-2.552
			C25.514,5.625,26.149,5.625,26.784,5.625z"/>
		<path style="fill-rule:evenodd;clip-rule:evenodd;fill:#F2F2F2;" d="M53.256,42.685c-0.387,0.801-1.039,1.016-1.898,1.004
			c-2.836-0.037-5.674-0.013-8.51-0.017c-1.328-0.002-2.053-1.202-1.447-2.399c0.242-0.479,0.648-0.749,1.188-0.75
			c3.102-0.006,6.201-0.001,9.303,0.002c0.695,0,1.063,0.455,1.365,0.996C53.256,41.908,53.256,42.296,53.256,42.685z"/>
		<path style="fill-rule:evenodd;clip-rule:evenodd;fill:#F2F2F2;" d="M6.455,21.614c0.27-0.39,0.534-0.779,1.062-0.858
			c0.823-0.124,1.477,0.426,1.485,1.299c0.014,1.602,0.006,3.204,0.006,4.806c0,1.532-0.002,3.063,0,4.595
			c0.001,1-0.247,1.482-0.869,1.678c-0.642,0.204-1.124-0.033-1.684-0.827C6.455,28.743,6.455,25.179,6.455,21.614z"/>
		<path style="fill-rule:evenodd;clip-rule:evenodd;fill:#F2F2F2;" d="M9.337,31.479c0-3.02,0-5.978,0-9.012
			c3.35,0,6.707,0,10.152,0c0-0.893,0.006-1.713-0.002-2.534c-0.005-0.57,0.172-1.065,0.674-1.348
			c0.277-0.156,0.629-0.248,0.948-0.25c3.105-0.019,6.21-0.015,9.316-0.01c1,0.001,1.577,0.561,1.604,1.569
			c0.022,0.827,0.005,1.655,0.005,2.552c0.199,0,0.386-0.003,0.574,0c2.239,0.042,4.49-0.049,6.714,0.159
			c3.699,0.346,6.979,1.708,9.414,4.667c1.418,1.723,2.277,3.681,2.281,5.954c0.004,2.345,0,4.688,0,7.067c-2.541,0-4.979,0-7.453,0
			c-0.012-0.209-0.029-0.38-0.031-0.551c-0.023-1.128,0-2.26-0.072-3.385c-0.158-2.498-1.459-4.043-3.889-4.635
			c-0.594-0.145-1.219-0.224-1.83-0.233c-1.887-0.03-3.775-0.003-5.663-0.018c-0.332-0.002-0.541,0.103-0.756,0.358
			c-3.053,3.625-8.523,3.645-11.601,0.038c-0.262-0.307-0.522-0.396-0.898-0.395c-2.929,0.011-5.858,0.006-8.787,0.006
			C9.813,31.479,9.589,31.479,9.337,31.479z"/>
		<path style="fill-rule:evenodd;clip-rule:evenodd;fill:#F2F2F2;" d="M28.725,10.839c0-1.12,0-2.209,0-3.369
			c0.971-0.118,1.942-0.229,2.913-0.354c0.96-0.124,1.917-0.269,2.878-0.391c1.094-0.139,1.994,0.228,2.602,1.15
			c0.619,0.941,0.625,1.944,0.01,2.887c-0.586,0.9-1.469,1.343-2.539,1.165C32.645,11.604,30.713,11.212,28.725,10.839z"/>
		<path style="fill-rule:evenodd;clip-rule:evenodd;fill:#F2F2F2;" d="M22.774,10.843c-1.955,0.368-3.854,0.745-5.761,1.076
			c-1.045,0.182-1.926-0.191-2.545-1.047c-0.646-0.894-0.7-1.875-0.16-2.837c0.53-0.944,1.387-1.436,2.46-1.322
			c1.993,0.212,3.977,0.507,6.005,0.772C22.774,8.596,22.774,9.712,22.774,10.843z"/>
		<path style="fill-rule:evenodd;clip-rule:evenodd;fill:#F2F2F2;" d="M21.299,17.65c0-0.826,0-1.6,0-2.411c2.974,0,5.928,0,8.918,0
			c0,0.809,0,1.591,0,2.411C27.251,17.65,24.298,17.65,21.299,17.65z"/>
	</g>
</g>
<g id="Layer_1">
</g>
</svg>
