<?xml version="1.0" encoding="iso-8859-1"?>
<!-- Generator: Adobe Illustrator 16.0.0, SVG Export Plug-In . SVG Version: 6.00 Build 0)  -->
<!DOCTYPE svg PUBLIC "-//W3C//DTD SVG 1.1//EN" "http://www.w3.org/Graphics/SVG/1.1/DTD/svg11.dtd">
<svg version="1.1" xmlns="http://www.w3.org/2000/svg" xmlns:xlink="http://www.w3.org/1999/xlink" x="0px" y="0px" width="64px"
	 height="64px" viewBox="0 0 64 64" style="enable-background:new 0 0 64 64;" xml:space="preserve">
<g id="water-cold">
	<g>
		<path style="fill:#1A1A1A;" d="M52,0H12C5.373,0,0,5.373,0,12v40c0,6.627,5.373,12,12,12h40c6.627,0,12-5.373,12-12V12
			C64,5.373,58.627,0,52,0z M62.1,52c0,5.569-4.53,10.1-10.1,10.1H12c-5.569,0-10.1-4.53-10.1-10.1V12C1.9,6.431,6.431,1.9,12,1.9
			h40c5.569,0,10.1,4.531,10.1,10.1V52z"/>
		<path d="M52,1.9H12C6.431,1.9,1.9,6.431,1.9,12v40c0,5.569,4.531,10.1,10.1,10.1h40c5.569,0,10.1-4.53,10.1-10.1V12
			C62.1,6.431,57.569,1.9,52,1.9z"/>
	</g>
	<g>
		<path style="fill-rule:evenodd;clip-rule:evenodd;fill:#F2F2F2;" d="M38.754,15.282c-0.379,0.308-0.807,0.571-1.119,0.939
			c-0.191,0.227-0.289,0.614-0.293,0.93c-0.023,2.223-0.013,4.447-0.012,6.67c0,0.051,0.02,0.101,0.038,0.19c1.55,0,3.102,0,4.702,0
			c0.009-0.175,0.024-0.344,0.024-0.514c0.002-1.888-0.038-3.777,0.017-5.664c0.036-1.245-0.359-2.124-1.523-2.552
			C39.977,15.282,39.365,15.282,38.754,15.282z"/>
		<path style="fill-rule:evenodd;clip-rule:evenodd;fill:#F2F2F2;" d="M13.282,52.342c0.372,0.801,1,1.016,1.827,1.004
			c2.729-0.037,5.459-0.014,8.188-0.018c1.278-0.002,1.975-1.201,1.393-2.398c-0.233-0.479-0.624-0.75-1.143-0.75
			c-2.984-0.006-5.967-0.002-8.952,0.002c-0.669,0-1.022,0.455-1.313,0.996C13.282,51.564,13.282,51.953,13.282,52.342z"/>
		<path style="fill-rule:evenodd;clip-rule:evenodd;fill:#F2F2F2;" d="M58.315,31.271c-0.26-0.391-0.514-0.779-1.021-0.858
			c-0.792-0.124-1.422,0.427-1.43,1.3c-0.013,1.602-0.005,3.203-0.006,4.806c0,1.532,0.002,3.063,0.001,4.595
			c-0.001,1,0.237,1.482,0.836,1.678c0.617,0.205,1.082-0.033,1.62-0.826C58.315,38.4,58.315,34.836,58.315,31.271z"/>
		<path style="fill-rule:evenodd;clip-rule:evenodd;fill:#F2F2F2;" d="M55.542,41.137c0-3.021,0-5.979,0-9.012
			c-3.223,0-6.453,0-9.769,0c0-0.893-0.007-1.714,0.002-2.534c0.005-0.57-0.166-1.065-0.648-1.348
			c-0.267-0.156-0.605-0.248-0.912-0.25c-2.988-0.019-5.977-0.015-8.965-0.01c-0.962,0.001-1.518,0.561-1.543,1.569
			c-0.021,0.826-0.004,1.654-0.004,2.552c-0.191,0-0.373-0.003-0.553,0.001c-2.155,0.041-4.321-0.05-6.461,0.158
			c-3.56,0.346-6.715,1.708-9.059,4.666c-1.364,1.724-2.191,3.682-2.195,5.953c-0.004,2.346,0,4.689,0,7.068
			c2.445,0,4.791,0,7.171,0c0.011-0.209,0.028-0.381,0.03-0.551c0.022-1.129,0-2.26,0.069-3.385
			c0.152-2.498,1.404-4.043,3.742-4.635c0.571-0.146,1.172-0.225,1.761-0.234c1.815-0.029,3.633-0.002,5.449-0.018
			c0.32-0.002,0.52,0.102,0.729,0.357c2.938,3.625,8.201,3.645,11.162,0.039c0.252-0.309,0.502-0.396,0.864-0.395
			c2.818,0.01,5.637,0.006,8.455,0.006C55.084,41.137,55.3,41.137,55.542,41.137z"/>
		<path style="fill-rule:evenodd;clip-rule:evenodd;fill:#F2F2F2;" d="M36.887,20.497c0-1.12,0-2.209,0-3.369
			c-0.934-0.118-1.869-0.229-2.803-0.354c-0.924-0.124-1.845-0.269-2.77-0.391c-1.052-0.139-1.918,0.228-2.503,1.15
			c-0.596,0.941-0.602,1.944-0.01,2.887c0.564,0.9,1.414,1.343,2.443,1.165C33.115,21.261,34.973,20.869,36.887,20.497z"/>
		<path style="fill-rule:evenodd;clip-rule:evenodd;fill:#F2F2F2;" d="M42.612,20.5c1.882,0.368,3.709,0.745,5.544,1.076
			c1.005,0.182,1.854-0.191,2.448-1.047c0.621-0.894,0.674-1.875,0.154-2.837c-0.511-0.944-1.335-1.436-2.368-1.322
			c-1.917,0.212-3.826,0.507-5.778,0.772C42.612,18.253,42.612,19.369,42.612,20.5z"/>
		<path style="fill-rule:evenodd;clip-rule:evenodd;fill:#F2F2F2;" d="M44.032,27.308c0-0.826,0-1.6,0-2.411
			c-2.861,0-5.704,0-8.581,0c0,0.809,0,1.591,0,2.411C38.305,27.308,41.146,27.308,44.032,27.308z"/>
	</g>
</g>
<g id="Layer_1">
</g>
</svg>
