<?xml version="1.0" encoding="iso-8859-1"?>
<!-- Generator: Adobe Illustrator 16.0.0, SVG Export Plug-In . SVG Version: 6.00 Build 0)  -->
<!DOCTYPE svg PUBLIC "-//W3C//DTD SVG 1.1//EN" "http://www.w3.org/Graphics/SVG/1.1/DTD/svg11.dtd">
<svg version="1.1" xmlns="http://www.w3.org/2000/svg" xmlns:xlink="http://www.w3.org/1999/xlink" x="0px" y="0px" width="64px"
	 height="64px" viewBox="0 0 64 64" style="enable-background:new 0 0 64 64;" xml:space="preserve">
<g id="wifi">
	<g>
		<path d="M52,0H12C5.373,0,0,5.373,0,12v40c0,6.627,5.373,12,12,12h40c6.627,0,12-5.373,12-12V12C64,5.373,58.627,0,52,0z"/>
		<path d="M12,62C6.486,62,2,57.514,2,52V12C2,6.486,6.486,2,12,2h40c5.514,0,10,4.486,10,10v40c0,5.514-4.486,10-10,10H12z"/>
	</g>
	<g>
		<path style="fill-rule:evenodd;clip-rule:evenodd;fill:#FFFFFF;" d="M32.485,48.074c-0.989-0.205-1.898-0.564-2.649-1.274
			c-1.585-1.498-1.953-3.897-0.874-5.785c1.092-1.909,3.381-2.825,5.463-2.187c2.089,0.64,3.482,2.633,3.354,4.799
			c-0.122,2.054-1.559,3.789-3.558,4.3c-0.16,0.041-0.315,0.099-0.472,0.147C33.327,48.074,32.907,48.074,32.485,48.074z"/>
		<path style="fill-rule:evenodd;clip-rule:evenodd;fill:#FFFFFF;" d="M33.573,9.292c9.073,0.064,17.102,3.475,23.766,10.131
			c0.91,0.91,0.921,2.304,0.05,3.172c-0.896,0.893-2.29,0.88-3.198-0.067c-4.246-4.435-9.423-7.168-15.436-8.246
			c-8.305-1.489-16.024,0.019-22.969,4.912c-1.366,0.962-2.563,2.173-3.803,3.307c-0.65,0.595-1.347,0.926-2.215,0.666
			c-0.907-0.272-1.477-0.899-1.657-1.835c-0.146-0.754,0.16-1.369,0.671-1.904c2.604-2.727,5.607-4.912,8.99-6.571
			C22.64,10.467,27.796,9.314,33.573,9.292z"/>
		<path style="fill-rule:evenodd;clip-rule:evenodd;fill:#FFFFFF;" d="M14.775,27.881c-0.005-0.583,0.309-1.082,0.737-1.533
			c1.893-1.994,4.06-3.628,6.539-4.812c6.776-3.236,13.673-3.604,20.627-0.641c2.533,1.079,4.903,2.494,6.938,4.386
			c0.516,0.48,0.981,1.051,1.34,1.657c0.649,1.103,0.401,2.196-0.545,2.868c-0.934,0.664-2.136,0.529-2.966-0.365
			c-1.983-2.137-4.351-3.697-7.066-4.734c-7.048-2.69-15.573-1.309-21.092,4.108c-0.28,0.274-0.535,0.576-0.828,0.838
			c-0.697,0.619-1.485,0.752-2.339,0.36C15.297,29.636,14.759,28.797,14.775,27.881z"/>
		<path style="fill-rule:evenodd;clip-rule:evenodd;fill:#FFFFFF;" d="M44.643,34.9c0.002,0.952-0.562,1.81-1.414,2.15
			c-0.835,0.335-1.834,0.09-2.479-0.655c-3.524-4.066-10.094-4.501-14.234-1.096c-0.41,0.337-0.777,0.728-1.146,1.111
			c-0.95,0.99-2.194,1.056-3.176,0.153c-0.94-0.863-0.99-2.103-0.107-3.115c2.493-2.855,5.672-4.382,9.41-4.755
			c3.82-0.381,7.338,0.484,10.432,2.797c0.803,0.6,1.492,1.354,2.204,2.067C44.523,33.951,44.641,34.37,44.643,34.9z"/>
	</g>
</g>
<g id="Layer_1">
</g>
</svg>
