<?xml version="1.0" encoding="iso-8859-1"?>
<!-- Generator: Adobe Illustrator 16.0.0, SVG Export Plug-In . SVG Version: 6.00 Build 0)  -->
<!DOCTYPE svg PUBLIC "-//W3C//DTD SVG 1.1//EN" "http://www.w3.org/Graphics/SVG/1.1/DTD/svg11.dtd">
<svg version="1.1" xmlns="http://www.w3.org/2000/svg" xmlns:xlink="http://www.w3.org/1999/xlink" x="0px" y="0px" width="64px"
	 height="64px" viewBox="0 0 64 64" style="enable-background:new 0 0 64 64;" xml:space="preserve">
<g id="pir">
	<g>
		<path d="M52,0H12C5.373,0,0,5.373,0,12v40c0,6.627,5.373,12,12,12h40c6.627,0,12-5.373,12-12V12C64,5.373,58.627,0,52,0z"/>
		<path d="M12,62C6.486,62,2,57.514,2,52V12C2,6.486,6.486,2,12,2h40c5.514,0,10,4.486,10,10v40c0,5.514-4.486,10-10,10H12z"/>
	</g>
	<g>
		<path style="fill-rule:evenodd;clip-rule:evenodd;fill:#FEFEFE;" d="M54.945,12.76c-2.419-0.122-3.908-2.189-3.002-4.17
			c1,0,2.001,0,3.002,0C54.945,9.979,54.945,11.37,54.945,12.76z"/>
		<path style="fill-rule:evenodd;clip-rule:evenodd;fill:#FEFEFE;" d="M22.059,24.265c-1.152,0.05-2.678,1.226-2.834,2.228
			c-0.313,2.012-0.575,4.032-0.858,6.048c-0.216,1.543-1.201,2.416-2.602,2.306c-1.474-0.115-2.472-1.152-2.315-2.698
			c0.285-2.793,0.647-5.584,1.133-8.347c0.118-0.67,0.725-1.403,1.313-1.817c2.404-1.694,4.877-3.292,7.349-4.887
			c0.46-0.297,1.019-0.464,1.554-0.615c1.574-0.444,2.921,0.485,3.047,2.132c0.056,0.731,0.011,1.48-0.076,2.21
			c-0.539,4.5-1.125,8.994-1.625,13.497c-0.052,0.47,0.232,1.098,0.564,1.47c2.035,2.281,4.078,4.559,6.222,6.733
			c1.437,1.459,1.708,2.927,1.002,4.859c-1.057,2.894-1.863,5.878-2.765,8.828c-0.466,1.525-1.686,2.151-3.32,1.684
			c-1.171-0.333-1.897-1.867-1.481-3.197c0.794-2.539,1.601-5.075,2.421-7.606c0.262-0.805,0.186-1.457-0.439-2.111
			c-2.06-2.161-4.03-4.407-6.113-6.546c-1.27-1.302-1.442-2.78-1.216-4.466c0.413-3.065,0.749-6.141,1.108-9.214
			C22.146,24.595,22.083,24.425,22.059,24.265z"/>
		<path style="fill-rule:evenodd;clip-rule:evenodd;fill:#FEFEFE;" d="M9.904,55.969c-1.18-0.054-1.846-0.728-2.299-1.594
			c-0.501-0.956-0.301-2.148,0.506-2.796c1.637-1.317,3.251-2.694,5.032-3.792c2.236-1.379,3.625-3.314,4.582-5.673
			c0.328-0.81,0.748-1.579,1.141-2.363c0.295-0.586,0.667-0.807,1.2-0.218c0.729,0.803,1.479,1.588,2.214,2.388
			c0.591,0.644,0.488,1.362,0.151,2.061c-0.654,1.354-1.305,2.709-2.035,4.021c-0.314,0.567-0.745,1.124-1.253,1.517
			c-2.497,1.924-5.026,3.807-7.574,5.664C11.082,55.538,10.462,55.713,9.904,55.969z"/>
		<path style="fill-rule:evenodd;clip-rule:evenodd;fill:#FEFEFE;" d="M52.61,27.486c-0.042,1.249-0.268,1.445-1.147,1.248
			c-2.976-0.666-5.766-1.74-8.211-3.619c-3.251-2.496-5.64-5.602-6.854-9.55c-0.275-0.899-0.511-1.811-0.734-2.725
			c-0.15-0.617,0.036-0.98,0.759-1.059c0.639-0.069,0.865,0.111,0.994,0.75c1.229,6.086,4.646,10.511,10.272,13.139
			c1.339,0.625,2.848,0.885,4.265,1.352C52.243,27.119,52.476,27.389,52.61,27.486z"/>
		<path style="fill-rule:evenodd;clip-rule:evenodd;fill:#FEFEFE;" d="M38.246,30.145c-0.194,1.112-0.896,2.1-1.941,2.495
			c-0.954,0.362-1.86,0.136-2.498-0.602c-1.419-1.643-2.789-3.331-4.091-5.066c-0.269-0.358-0.251-1.007-0.205-1.508
			c0.131-1.43,0.333-2.854,0.539-4.276c0.036-0.244,0.221-0.648,0.354-0.656c0.248-0.013,0.588,0.146,0.753,0.347
			c2.052,2.484,4.094,4.977,6.099,7.5C37.67,28.9,37.919,29.553,38.246,30.145z"/>
		<path style="fill-rule:evenodd;clip-rule:evenodd;fill:#FEFEFE;" d="M52.582,23.333c-2.742-0.505-5.187-1.641-7.249-3.561
			c-2.109-1.962-3.437-4.375-4.143-7.148c-0.314-1.234-0.098-1.712,0.8-1.828c0.475-0.061,0.74,0.122,0.817,0.599
			c0.617,3.854,2.656,6.774,6.007,8.697c1.2,0.688,2.606,1.031,3.939,1.464c0.438,0.143,0.932,0.112,0.811,0.766
			C53.467,22.855,53.467,23.52,52.582,23.333z"/>
		<path style="fill-rule:evenodd;clip-rule:evenodd;fill:#FEFEFE;" d="M27.174,14.717c-2.222,0.01-3.774-1.545-3.757-3.762
			c0.016-2.016,1.768-3.823,3.707-3.824c1.949,0,3.939,1.94,3.838,3.884C30.86,12.986,29.422,14.772,27.174,14.717z"/>
		<path style="fill-rule:evenodd;clip-rule:evenodd;fill:#FEFEFE;" d="M53.418,17.914c-2.975-0.618-5.185-2.234-6.396-5.08
			c-0.268-0.628-0.396-1.322-0.532-1.998c-0.127-0.632,0.26-0.903,0.831-1.006c0.584-0.105,0.812,0.198,0.895,0.714
			c0.431,2.646,1.969,4.384,4.43,5.344c0.331,0.129,0.689,0.201,1.043,0.255c0.508,0.077,0.95,0.178,0.858,0.851
			C54.459,17.645,54.175,18.04,53.418,17.914z"/>
	</g>
</g>
<g id="Layer_1">
</g>
</svg>
