<?xml version="1.0" encoding="iso-8859-1"?>
<!-- Generator: Adobe Illustrator 16.0.0, SVG Export Plug-In . SVG Version: 6.00 Build 0)  -->
<!DOCTYPE svg PUBLIC "-//W3C//DTD SVG 1.1//EN" "http://www.w3.org/Graphics/SVG/1.1/DTD/svg11.dtd">
<svg version="1.1" xmlns="http://www.w3.org/2000/svg" xmlns:xlink="http://www.w3.org/1999/xlink" x="0px" y="0px" width="64px"
	 height="64px" viewBox="0 0 64 64" style="enable-background:new 0 0 64 64;" xml:space="preserve">
<g id="camera">
	<g>
		<path d="M52,0H12C5.373,0,0,5.373,0,12v40c0,6.627,5.373,12,12,12h40c6.627,0,12-5.373,12-12V12C64,5.373,58.627,0,52,0z"/>
		<path d="M12,62C6.486,62,2,57.514,2,52V12C2,6.486,6.486,2,12,2h40c5.514,0,10,4.486,10,10v40c0,5.514-4.486,10-10,10H12z"/>
	</g>
	<g>
		<path style="fill-rule:evenodd;clip-rule:evenodd;fill:#FEFEFE;" d="M7.448,29.443c0.451-0.277,0.734-0.47,1.035-0.632
			c11.635-6.285,23.272-12.568,34.911-18.847c1.117-0.603,1.422-0.518,2.024,0.597c1.646,3.049,3.279,6.106,4.909,9.165
			c0.643,1.208,0.58,1.437-0.607,2.079c-8.368,4.525-16.738,9.042-25.108,13.563c-1.058,0.571-2.094,1.191-3.188,1.685
			c-0.375,0.169-0.995,0.191-1.333-0.008C15.922,34.579,11.785,32.061,7.448,29.443z"/>
		<path style="fill-rule:evenodd;clip-rule:evenodd;fill:#FEFEFE;" d="M41.691,36.684c-1.159,0.67-2.236,1.29-3.366,1.942
			c-0.585-1.063-1.244-2.26-1.94-3.526c-5.841,3.148-11.583,6.242-17.437,9.396c-1.514-2.825-2.97-5.545-4.427-8.264
			c0.064-0.066,0.129-0.131,0.192-0.197c1.583,0.941,3.205,1.826,4.734,2.849c0.867,0.579,1.511,0.622,2.462,0.102
			c8.497-4.644,17.03-9.222,25.554-13.817c0.306-0.164,0.622-0.307,1.034-0.509c0.538,1.003,1.047,1.953,1.617,3.013
			c-3.435,1.86-6.777,3.669-10.216,5.531C40.536,34.439,41.14,35.612,41.691,36.684z"/>
		<path style="fill-rule:evenodd;clip-rule:evenodd;fill:#FEFEFE;" d="M56.871,51.061c-1.849,0-3.61,0.03-5.366-0.039
			c-0.215-0.008-0.577-0.539-0.586-0.838c-0.058-1.695-0.075-3.396-0.011-5.09c0.036-0.94-0.199-1.367-1.223-1.262
			c-0.832,0.087-1.681,0.018-2.48,0.018c0-1.327,0-2.54,0-3.922c0.859,0,1.799-0.039,2.734,0.012
			c0.755,0.042,0.979-0.261,0.963-0.984c-0.039-1.732,0.029-3.468-0.03-5.198c-0.028-0.86,0.285-1.09,1.102-1.063
			c1.614,0.054,3.231,0.016,4.897,0.016C56.871,38.862,56.871,44.863,56.871,51.061z"/>
		<path style="fill-rule:evenodd;clip-rule:evenodd;fill:#FEFEFE;" d="M12.111,45.234c-1.666-3.106-3.294-6.141-4.982-9.289
			c1.122-0.617,2.156-1.187,3.301-1.818c1.672,3.119,3.296,6.15,4.99,9.311C14.308,44.042,13.269,44.606,12.111,45.234z"/>
		<path style="fill-rule:evenodd;clip-rule:evenodd;fill:#FEFEFE;" d="M45.705,41.899c-0.015,1.845-1.589,3.394-3.396,3.343
			c-1.798-0.051-3.256-1.561-3.257-3.367c-0.002-1.846,1.536-3.353,3.391-3.322C44.238,38.583,45.72,40.103,45.705,41.899z"/>
	</g>
</g>
<g id="Layer_1">
</g>
</svg>
