<?xml version="1.0" encoding="iso-8859-1"?>
<!-- Generator: Adobe Illustrator 16.0.0, SVG Export Plug-In . SVG Version: 6.00 Build 0)  -->
<!DOCTYPE svg PUBLIC "-//W3C//DTD SVG 1.1//EN" "http://www.w3.org/Graphics/SVG/1.1/DTD/svg11.dtd">
<svg version="1.1" xmlns="http://www.w3.org/2000/svg" xmlns:xlink="http://www.w3.org/1999/xlink" x="0px" y="0px" width="64px"
	 height="64px" viewBox="0 0 64 64" style="enable-background:new 0 0 64 64;" xml:space="preserve">
<g id="poe">
	<g>
		<path d="M52,0H12C5.373,0,0,5.373,0,12v40c0,6.627,5.373,12,12,12h40c6.627,0,12-5.373,12-12V12C64,5.373,58.627,0,52,0z"/>
		<path d="M12,62C6.486,62,2,57.514,2,52V12C2,6.486,6.486,2,12,2h40c5.514,0,10,4.486,10,10v40c0,5.514-4.486,10-10,10H12z"/>
	</g>
	<path style="fill:#FFFFFF;" d="M57.358,13.67c-2.671-0.471-49.131-0.44-50.721,0.046c-0.61,1.775-0.763,23.235-0.116,25.677
		C8.89,39.478,11,39.565,14,39.663c0,2.412,0,4.497,0,6.614c2,0.158,2.534,0.142,3.771,0.285c0.103,2.151,0.281,4.188,0.383,6.188
		c9.304,0,18.399,0,27.818,0c0.19-2,0.379-4.065,0.567-6.163c1.174-0.178,2.46-0.19,3.46-0.386c0-2.18,0-4.451,0-6.451
		c3,0,5.071,0,7.361,0C58.033,36.75,57.949,15.347,57.358,13.67z M13.851,24.773c-1.34,0-2.561,0-3.936,0c0-3.206,0-6.382,0-9.703
		c1.313,0,2.522,0,3.936,0C13.851,18.433,13.851,21.551,13.851,24.773z M34.19,15.046c1.323,0,2.476,0,3.774,0
		c0,3.237,0,6.368,0,9.666c-1.172,0-2.386,0-3.774,0C34.19,21.612,34.19,18.428,34.19,15.046z M25.962,15.117
		c1.287,0,2.49,0,3.857,0c0,3.167,0,6.351,0,9.649c-1.265,0-2.473,0-3.857,0C25.962,21.448,25.962,18.374,25.962,15.117z
		 M21.504,24.8c-1.282,0-2.432,0-3.721,0c0-3.254,0-6.429,0-9.737c1.24,0,2.385,0,3.721,0C21.504,18.232,21.504,21.409,21.504,24.8z
		 M23.677,52.511c1.688-3.771,3.298-7.377,5.083-11.368c-1.821,0-3.345,0-5.593,0c2.461-4.943,4.652-9.348,6.876-13.824
		c2.973,0,5.863,0,9.231,0c-1.808,2.618-3.458,5.013-5.386,7.804c2.715,0,4.945,0,6.944,0
		C35.163,40.869,29.516,46.592,23.677,52.511z M46.31,24.7c-1.263,0-2.52,0-3.89,0c0-3.184,0-6.309,0-9.6c1.282,0,2.485,0,3.89,0
		C46.31,18.376,46.31,21.451,46.31,24.7z M54.461,24.778c-1.364,0-2.588,0-3.991,0c0-3.35,0-6.429,0-9.69c1.328,0,2.593,0,3.991,0
		C54.461,18.354,54.461,21.546,54.461,24.778z"/>
</g>
<g id="Layer_1">
</g>
</svg>
